<svg width="70" height="70" viewBox="0 0 70 70" fill="none" xmlns="http://www.w3.org/2000/svg">
<path d="M52.5 35H17.5V43.75H52.5V35ZM68.724 14.3555L50.8776 0.957031C50.0573 0.341797 48.9453 0 47.7786 0H46.6667V17.5H70V16.666C70 15.8047 69.5443 14.9707 68.724 14.3555ZM40.8333 18.5938V0H4.375C1.95052 0 0 1.46289 0 3.28125V66.7188C0 68.5371 1.95052 70 4.375 70H65.625C68.0495 70 70 68.5371 70 66.7188V21.875H45.2083C42.8021 21.875 40.8333 20.3984 40.8333 18.5938ZM11.6667 9.84375C11.6667 9.23945 12.3193 8.75 13.125 8.75H27.7083C28.5141 8.75 29.1667 9.23945 29.1667 9.84375V12.0312C29.1667 12.6355 28.5141 13.125 27.7083 13.125H13.125C12.3193 13.125 11.6667 12.6355 11.6667 12.0312V9.84375ZM11.6667 18.5938C11.6667 17.9895 12.3193 17.5 13.125 17.5H27.7083C28.5141 17.5 29.1667 17.9895 29.1667 18.5938V20.7812C29.1667 21.3855 28.5141 21.875 27.7083 21.875H13.125C12.3193 21.875 11.6667 21.3855 11.6667 20.7812V18.5938ZM58.3333 60.1562C58.3333 60.7605 57.6807 61.25 56.875 61.25H42.2917C41.4859 61.25 40.8333 60.7605 40.8333 60.1562V57.9688C40.8333 57.3645 41.4859 56.875 42.2917 56.875H56.875C57.6807 56.875 58.3333 57.3645 58.3333 57.9688V60.1562ZM58.3333 32.8125V45.9375C58.3333 47.1461 57.0281 48.125 55.4167 48.125H14.5833C12.9719 48.125 11.6667 47.1461 11.6667 45.9375V32.8125C11.6667 31.6039 12.9719 30.625 14.5833 30.625H55.4167C57.0281 30.625 58.3333 31.6039 58.3333 32.8125Z" fill="black"/>
</svg>
