<svg width="70" height="62" viewBox="0 0 70 62" fill="none" xmlns="http://www.w3.org/2000/svg">
<path d="M6.5625 0C2.93945 0 0 2.93945 0 6.5625V54.6875C0 58.3105 2.93945 61.25 6.5625 61.25H63.4375C67.0605 61.25 70 58.3105 70 54.6875V6.5625C70 2.93945 67.0605 0 63.4375 0H6.5625ZM6.5625 4.375H21.0547C21.5059 4.375 21.875 4.74414 21.875 5.19531V7.92969C21.875 8.38086 21.5059 8.75 21.0547 8.75H5.19531C4.74414 8.75 4.375 8.38086 4.375 7.92969V6.5625C4.375 5.35938 5.35938 4.375 6.5625 4.375ZM64.8047 17.5H5.19531C4.74414 17.5 4.375 17.1309 4.375 16.6797V11.7578C4.375 11.3066 4.74414 10.9375 5.19531 10.9375H24.0625L28.1914 4.74414C28.3418 4.51172 28.6016 4.375 28.875 4.375H63.4375C64.6406 4.375 65.625 5.35938 65.625 6.5625V16.6797C65.625 17.1309 65.2559 17.5 64.8047 17.5ZM35 53.5938C25.9492 53.5938 18.5938 46.2383 18.5938 37.1875C18.5938 28.1367 25.9492 20.7812 35 20.7812C44.0508 20.7812 51.4062 28.1367 51.4062 37.1875C51.4062 46.2383 44.0508 53.5938 35 53.5938ZM35 25.1562C28.3691 25.1562 22.9688 30.5566 22.9688 37.1875C22.9688 43.8184 28.3691 49.2188 35 49.2188C41.6309 49.2188 47.0312 43.8184 47.0312 37.1875C47.0312 30.5566 41.6309 25.1562 35 25.1562ZM28.4375 39.375C27.2344 39.375 26.25 38.3906 26.25 37.1875C26.25 32.3613 30.1738 28.4375 35 28.4375C36.2031 28.4375 37.1875 29.4219 37.1875 30.625C37.1875 31.8281 36.2031 32.8125 35 32.8125C32.5938 32.8125 30.625 34.7812 30.625 37.1875C30.625 38.3906 29.6406 39.375 28.4375 39.375Z" fill="black"/>
</svg>
