<svg width="212" height="193" viewBox="0 0 212 193" fill="none" xmlns="http://www.w3.org/2000/svg">
<g clip-path="url(#clip0_4_785)">
<path d="M47.5483 32.1362L45.932 39.7407L53.99 41.7766L52.9888 33.6579L47.5483 32.1362Z" fill="#A0616A"/>
<path d="M0 189.551C0 189.79 0.214166 189.982 0.48086 189.982H211.519C211.786 189.982 212 189.79 212 189.551C212 189.312 211.786 189.12 211.519 189.12H0.48086C0.214166 189.12 0 189.312 0 189.551Z" fill="#3F3D56"/>
<path d="M143.862 86.2969H60.7586C51.3346 86.2969 43.695 93.1436 43.695 101.589V173.808C43.695 182.254 51.3346 189.101 60.7586 189.101H143.862C153.286 189.101 160.925 182.254 160.925 173.808V101.589C160.925 93.1436 153.286 86.2969 143.862 86.2969Z" fill="white"/>
<path d="M143.862 189.463H60.7585C51.1269 189.463 43.2909 182.44 43.2909 173.808V101.589C43.2909 92.9575 51.1269 85.9349 60.7585 85.9349H143.862C153.493 85.9349 161.33 92.9575 161.33 101.589V173.808C161.33 182.44 153.493 189.463 143.862 189.463ZM60.7585 86.6591C51.5724 86.6591 44.099 93.3568 44.099 101.589V173.808C44.099 182.041 51.5724 188.739 60.7585 188.739H143.862C153.048 188.739 160.521 182.041 160.521 173.808V101.589C160.521 93.3568 153.048 86.6591 143.862 86.6591L60.7585 86.6591Z" fill="#3F3D56"/>
<path d="M149.882 117.607H116.478C115.062 117.607 113.909 116.574 113.909 115.304C113.909 114.034 115.062 113.001 116.478 113.001H149.882C151.298 113.001 152.451 114.034 152.451 115.304C152.451 116.574 151.298 117.607 149.882 117.607Z" fill="#63FDFF"/>
<path d="M118.545 135.715H86.0756C85.2571 135.715 84.591 135.118 84.591 134.385C84.591 133.651 85.2571 133.055 86.0756 133.055H118.545C119.364 133.055 120.029 133.651 120.029 134.385C120.029 135.118 119.364 135.715 118.545 135.715Z" fill="#63FDFF"/>
<path d="M72.6528 91.2428H54.1153C54.0461 91.2428 53.99 91.2931 53.99 91.3551V93.2892C53.99 93.3512 54.0461 93.4015 54.1153 93.4015H72.6528C72.722 93.4015 72.7782 93.3512 72.7782 93.2892V91.3551C72.7782 91.2931 72.722 91.2428 72.6528 91.2428Z" fill="#63FDFF"/>
<path d="M135.093 93.4015C136.157 93.4015 137.02 92.6283 137.02 91.6745C137.02 90.7208 136.157 89.9476 135.093 89.9476C134.029 89.9476 133.166 90.7208 133.166 91.6745C133.166 92.6283 134.029 93.4015 135.093 93.4015Z" fill="#3F3D56"/>
<path d="M140.392 93.4015C141.457 93.4015 142.319 92.6283 142.319 91.6745C142.319 90.7208 141.457 89.9476 140.392 89.9476C139.328 89.9476 138.465 90.7208 138.465 91.6745C138.465 92.6283 139.328 93.4015 140.392 93.4015Z" fill="#3F3D56"/>
<path d="M145.692 93.4015C146.756 93.4015 147.619 92.6283 147.619 91.6745C147.619 90.7208 146.756 89.9476 145.692 89.9476C144.627 89.9476 143.765 90.7208 143.765 91.6745C143.765 92.6283 144.627 93.4015 145.692 93.4015Z" fill="#3F3D56"/>
<path d="M60.5563 142.837C60.5563 143.076 60.7704 143.268 61.0371 143.268H143.583C143.85 143.268 144.064 143.076 144.064 142.837C144.064 142.598 143.85 142.406 143.583 142.406H61.0371C60.7704 142.406 60.5563 142.598 60.5563 142.837Z" fill="#3F3D56"/>
<path d="M85.7313 36.5443C87.4887 35.243 89.6624 35.0008 90.5863 36.0032C91.5102 37.0056 90.8345 38.8728 89.0763 40.1744C88.382 40.703 87.5565 41.0748 86.6689 41.2589L79.1453 46.6885L76.3775 43.47L84.0883 38.4591C84.4575 37.7124 85.0209 37.0558 85.7313 36.5443Z" fill="#A0616A"/>
<path d="M42.2459 48.7949C42.2421 48.5548 42.2446 46.4603 43.9748 45.1364C45.9624 43.6157 48.7669 44.2312 49.7506 44.4471C52.0229 44.9458 52.2092 45.8194 54.3432 46.717C58.3355 48.3963 53.3332 47.5368 55.7088 46.9983C56.5311 46.8119 68.3609 46.0766 71.3056 44.4524C77.0326 41.2934 80.9348 39.3778 80.9348 39.3778L83.4857 43.9501C83.4857 43.9501 79.797 48.5467 74.6056 51.952C69.2803 55.445 66.6177 57.1915 62.5712 57.8663C62.2227 57.9244 53.6526 59.2358 46.75 54.6141C45.1756 53.5599 42.2908 51.6284 42.2459 48.7949Z" fill="#E6E6E6"/>
<path d="M50.159 37.1665C55.0668 37.1665 59.0454 33.6009 59.0454 29.2025C59.0454 24.8041 55.0668 21.2384 50.159 21.2384C45.2512 21.2384 41.2726 24.8041 41.2726 29.2025C41.2726 33.6009 45.2512 37.1665 50.159 37.1665Z" fill="#A0616A"/>
<path d="M119.754 82.708L110.602 74.3124L105.878 78.7288L112.697 86.7787L119.46 87.4719L119.754 82.708Z" fill="#A0616A"/>
<path d="M67.4971 66.9644C68.0323 67.0042 69.7334 67.3097 71.3593 66.508C72.4689 65.9609 73.038 65.1473 73.2302 64.8886C75.6147 61.6791 84.7671 56.6741 92.9812 56.3661C94.8413 56.2963 96.0657 56.4895 97.1785 57.0094C98.7566 57.7466 99.3865 58.8025 101.389 61.2762C102.484 62.6293 103.696 63.9041 104.805 65.2486C111.295 73.1197 113.755 73.7377 113.504 76.2611C113.225 79.0609 109.856 81.7172 107.616 81.4106C106.699 81.285 106.344 80.7135 105.119 79.5565C101.526 76.1643 100.04 76.791 97.482 74.1927C94.4957 71.1592 94.8867 68.6439 93.3287 68.5468C91.8839 68.4567 91.2699 70.6024 88.1853 73.4529C86.7739 74.7572 85.7688 75.3556 82.7068 77.2593C70.7826 84.673 70.5923 85.194 68.1859 85.7853C67.133 86.044 59.6604 87.88 56.9984 84.9582C52.8327 80.3858 62.6738 66.6052 67.4971 66.9644Z" fill="#2F2E41"/>
<path d="M116.956 84.6052C117.629 84.3343 118.416 84.0176 118.67 83.2893C118.841 82.7965 118.742 82.1888 118.388 81.7689C117.979 81.2845 117.375 81.2206 117.399 81.1349C117.436 81.0044 118.867 81.0554 120.437 81.5528C120.733 81.6466 122.075 82.0861 123.782 83.2807C125.15 84.2377 124.966 84.4296 125.824 84.9814C128.457 86.6754 130.926 85.3403 132.351 86.9289C132.901 87.542 133.136 88.4125 132.904 89.1163C132.439 90.5297 130.18 91.0162 128.944 91.2673C125.97 91.8721 123.719 91.3784 121.368 91.0233C113.373 89.816 108.881 90.9156 108.279 89.2556C108.165 88.9415 108.35 88.9682 108.967 86.6627C109.575 84.3872 109.555 83.7623 110.073 83.5801C110.853 83.3058 111.377 84.5535 113.342 84.9805C115.083 85.3589 116.52 84.7807 116.956 84.6052Z" fill="#2F2E41"/>
<path d="M103.484 110.173L101.172 98.6205L94.4953 99.8974L95.0934 109.99L100.255 113.967L103.484 110.173Z" fill="#A0616A"/>
<path d="M70.1081 70.8476C70.526 71.1499 71.7422 72.2587 73.5899 72.4136C74.8508 72.5193 75.8315 72.1325 76.1526 72.0152C80.1367 70.5594 90.8459 71.024 97.8356 74.9029C99.4185 75.7813 100.311 76.5573 100.906 77.5475C101.749 78.9516 101.609 80.1425 101.716 83.1971C101.775 84.8679 101.979 86.5327 102.054 88.2031C102.492 97.9822 104.141 99.7317 102.351 101.693C100.366 103.869 95.914 104.372 94.2532 102.991C93.573 102.426 93.6372 101.774 93.3483 100.2C92.5011 95.5852 90.8785 95.3558 90.3901 91.9186C89.8198 87.9057 91.7193 86.0212 90.491 85.1567C89.352 84.3551 87.4994 85.8216 83.1611 86.6279C81.176 86.9969 79.9694 86.9862 76.2429 87.0205C61.731 87.1541 61.2471 87.4894 58.8854 86.7676C57.8521 86.4518 50.5184 84.2104 50.1465 80.4531C49.5645 74.5732 66.3421 68.1231 70.1081 70.8476Z" fill="#2F2E41"/>
<path d="M99.9799 110.335C100.707 110.449 101.556 110.583 102.222 110.108C102.673 109.787 102.972 109.234 102.942 108.709C102.907 108.102 102.447 107.745 102.521 107.686C102.633 107.597 103.785 108.359 104.772 109.561C104.959 109.787 105.794 110.826 106.458 112.674C106.99 114.154 106.718 114.22 107.082 115.109C108.199 117.836 111.079 117.974 111.262 120.005C111.333 120.789 110.982 121.627 110.349 122.093C109.079 123.029 106.905 122.294 105.725 121.881C102.885 120.884 101.331 119.342 99.6087 117.866C93.7497 112.843 89.3437 111.492 89.8863 109.816C89.989 109.499 90.1252 109.614 92.0798 108.017C94.0091 106.44 94.3841 105.913 94.927 106.023C95.7443 106.188 95.3959 107.484 96.7542 108.827C97.9579 110.016 99.5091 110.261 99.9799 110.335Z" fill="#2F2E41"/>
<path d="M51.3705 30.725C51.7165 29.6159 51.282 29.2117 51.7248 28.7139C51.7248 28.7139 51.9031 28.5136 53.4964 27.973C53.0263 25.5285 53.3783 25.1152 53.3783 25.1152C53.784 24.6388 54.5966 24.5236 55.1499 24.5859C56.3199 24.7177 56.5271 25.6657 57.2758 25.6444C58.31 25.615 59.5505 23.7596 59.1654 22.1515C58.8514 20.8397 57.4971 19.8655 57.1577 20.0346C56.8211 20.2022 55.6094 19.4631 55.1499 19.6112C54.8361 19.7123 53.3589 19.5778 53.024 19.717C52.6582 19.8691 51.6107 20.816 51.5106 20.6967C50.8146 19.8676 50.8295 19.5782 50.4257 19.3995C49.7102 19.0829 48.9324 19.6681 47.5912 20.2463C44.8316 21.4359 44.0235 20.7262 42.7489 21.7281C42.105 22.2342 41.7597 23.2014 41.0954 25.1152C40.1664 27.7915 39.7019 29.1297 40.1506 30.4074C40.6081 31.7105 41.2819 31.4269 42.2765 33.2653C43.3835 35.3117 43.002 36.5012 44.048 36.9699C44.8565 37.3321 46.1558 37.1016 46.6463 36.4407C47.4862 35.3091 45.3154 33.7784 46.0558 31.9951C46.5103 30.9005 47.9124 30.0705 48.7722 30.3016C49.7444 30.5629 49.816 32.1252 50.4257 32.101C50.9478 32.0803 51.3102 30.9183 51.3705 30.725Z" fill="#2F2E41"/>
<path d="M44.6386 38.3459C46.4571 36.5186 53.8642 38.4099 54.5594 41.3096C54.8453 42.5022 53.7897 43.0058 54.087 44.3791C54.5218 46.3877 56.9837 46.2507 58.8112 48.2954C61.4055 51.1982 58.7328 54.0357 61.6457 58.8799C62.2681 59.9151 62.7927 60.7876 63.8897 61.6319C66.4068 63.5695 68.7494 62.905 70.0311 64.7015C70.9896 66.0449 70.5958 67.7006 70.5035 68.0885C70.1253 69.679 69.1 70.0665 68.3776 71.3697C67.1757 73.538 68.5366 75.1299 68.6138 77.7205C68.7105 80.9618 66.7885 85.4549 62.9448 86.9291C58.6266 88.5853 53.4184 85.8422 50.8981 83.1186C49.3943 81.4934 48.9577 79.9943 48.2998 78.1439C45.3595 69.874 43.6983 70.6219 41.4497 64.0664C38.8792 56.5722 38.3739 47.7924 41.4497 45.0142C41.8574 44.6459 42.9794 43.7948 43.6937 42.2622C44.655 40.1999 43.8246 39.1639 44.6386 38.3459Z" fill="#E6E6E6"/>
<path d="M71.5085 80.8832C72.9183 82.4886 73.1369 84.4419 71.9967 85.2459C70.8565 86.0498 68.7897 85.4 67.3796 83.7939C66.8065 83.1592 66.4113 82.4108 66.2271 81.6111L60.3492 74.7413L63.3864 72.6651L69.4116 79.3656C70.2357 79.7141 70.9548 80.2345 71.5085 80.8832Z" fill="#A0616A"/>
<path d="M49.9816 45.3099C50.2431 45.2576 52.5316 44.8324 54.3308 46.0803C56.3975 47.5137 56.2974 50.0999 56.2623 51.007C56.1812 53.1023 55.2649 53.4441 54.7199 55.4994C53.7001 59.3448 55.6421 62.9183 56.7151 64.8927C57.0865 65.5761 58.2797 67.6672 60.6548 69.9193C65.274 74.2993 69.3956 76.604 69.3956 76.604L64.9679 80.1312C64.9679 80.1312 57.915 78.2047 53.136 74.3448C48.2338 70.3854 40.6951 56.3766 39.1323 52.9641C38.9978 52.6703 40.9041 57.448 44.5442 50.449C45.3744 48.8525 46.8957 45.9275 49.9816 45.3099Z" fill="#E6E6E6"/>
<path d="M110.691 152.702C107.877 153.089 105.818 154.703 106.093 156.309C106.368 157.914 108.872 158.901 111.687 158.514C112.814 158.373 113.887 157.993 114.816 157.404L126.718 155.631L125.923 151.415L114.049 152.921C112.965 152.609 111.814 152.534 110.691 152.702Z" fill="#FFB6B6"/>
<path d="M161.977 139.56L157.362 148.336L134.163 155.335L114.912 156.256L114.43 152.112L135.293 148.202L156.702 139.136L161.977 139.56Z" fill="#E6E6E6"/>
<path d="M119.189 172.883L115.046 182.275L109.684 178.999L112.852 169.17L119.189 172.883Z" fill="#FFB6B6"/>
<path d="M101.885 169.388L90.9182 178.78L95.305 182.93L106.516 175.067L101.885 169.388Z" fill="#FFB6B6"/>
<path d="M164.032 138.81L163.91 138.045L161.108 133.131L151.847 135.315L153.553 142.086L164.032 138.81Z" fill="#FFB6B6"/>
<path d="M160.133 171.572L160.418 174.853C160.418 174.853 161.595 188.609 152.09 189.701C142.585 190.793 138.442 191.885 132.837 183.367L124.063 169.388L118.939 174.853L112.121 170.044C112.121 170.044 116.996 153.007 120.895 152.352C121.382 152.27 121.87 152.229 122.35 152.22C125.578 152.16 128.621 153.575 130.552 155.894L141.611 169.17L145.632 167.532L160.133 171.572Z" fill="#2F2E41"/>
<path d="M107.491 181.838L109.684 178.125L116.021 182.056C116.021 182.056 117.483 186.862 115.29 187.517C113.096 188.172 107.003 187.298 107.003 187.298C107.003 187.298 95.7924 189.483 95.5487 187.517C95.305 185.551 100.667 185.114 100.667 185.114L107.491 181.838Z" fill="#2F2E41"/>
<path d="M131.375 179.217L114.437 169.652L105.785 176.596L99.9355 170.48C99.9355 170.48 110.659 156.283 113.827 155.628C116.996 154.973 122.113 154.536 122.113 154.536L137.711 167.423L131.375 179.217Z" fill="#2F2E41"/>
<path d="M90.6745 177.907L96.2799 183.367L95.5407 183.934C95.5407 183.934 94.0864 189.61 90.6745 187.69C87.2625 185.77 87.0187 185.333 87.0187 185.333C87.0187 185.333 77.2702 187.298 76.2953 183.804C75.3205 180.309 78.0013 180.964 78.0013 180.964L80.4356 182.275L90.6745 177.907Z" fill="#2F2E41"/>
<path d="M154.771 137.718C159.078 137.718 162.57 134.589 162.57 130.729C162.57 126.868 159.078 123.739 154.771 123.739C150.464 123.739 146.972 126.868 146.972 130.729C146.972 134.589 150.464 137.718 154.771 137.718Z" fill="#FFB6B6"/>
<path d="M152.943 140.666L164.154 137.609C164.154 137.609 168.541 146.782 167.81 150.932C167.079 155.082 160.418 174.853 160.418 174.853L145.632 167.532C145.632 167.532 145.388 163.163 144.657 161.198C143.926 159.232 141.611 153.225 146.729 148.202C151.847 143.178 152.943 140.666 152.943 140.666Z" fill="#E6E6E6"/>
<path d="M128.269 186.53C126.445 188.489 126.093 190.92 127.485 191.961C128.876 193.001 131.482 192.256 133.307 190.297C134.048 189.523 134.571 188.601 134.833 187.609L142.447 179.221L138.738 176.531L130.948 184.703C129.905 185.111 128.986 185.738 128.269 186.53Z" fill="#FFB6B6"/>
<path d="M161.543 145.073L164.192 154.48L151.223 173.085L137.984 185.01L133.692 181.82L147.045 166.93L157.166 147.746L161.543 145.073Z" fill="#E6E6E6"/>
<path d="M147.582 129.527C149.582 129.523 149.695 129.535 150.019 129.527C152.499 129.469 153.148 128.594 154.406 128.654C156.65 128.76 153.688 138.844 152.456 143.506C151.248 148.078 155.331 152.175 155.624 152.461C159.769 156.5 167.048 157.239 168.297 155.519C169.308 154.126 165.725 152.009 166.591 148.966C167.438 145.992 171.348 146.308 172.44 143.506C173.585 140.571 169.739 139.091 167.322 131.93C165.935 127.817 166.18 127.051 164.885 124.504C161.424 117.695 144.458 120.594 146.363 126.906C146.731 128.127 145.751 129.531 147.582 129.527Z" fill="#2F2E41"/>
<path d="M172.485 46.5548H90.5206C88.2027 46.5548 86.317 44.8646 86.317 42.7874V3.76734C86.317 1.69014 88.2027 0 90.5206 0H172.485C174.803 0 176.689 1.69014 176.689 3.76734V42.7874C176.689 44.8646 174.803 46.5548 172.485 46.5548Z" fill="white"/>
<path d="M172.485 46.5548H90.5206C88.2027 46.5548 86.317 44.8646 86.317 42.7874V3.76734C86.317 1.69014 88.2027 0 90.5206 0H172.485C174.803 0 176.689 1.69014 176.689 3.76734V42.7874C176.689 44.8646 174.803 46.5548 172.485 46.5548ZM90.5206 0.629119C88.5898 0.629119 87.0189 2.03696 87.0189 3.76734V42.7874C87.0189 44.5178 88.5898 45.9257 90.5206 45.9257H172.485C174.416 45.9257 175.987 44.5178 175.987 42.7874V3.76734C175.987 2.03696 174.416 0.629119 172.485 0.629119H90.5206Z" fill="#3F3D56"/>
<path d="M166.159 4.71839C166.741 4.71839 167.212 4.29589 167.212 3.77472C167.212 3.25354 166.741 2.83104 166.159 2.83104C165.578 2.83104 165.106 3.25354 165.106 3.77472C165.106 4.29589 165.578 4.71839 166.159 4.71839Z" fill="#3F3D56"/>
<path d="M168.967 4.71839C169.549 4.71839 170.02 4.29589 170.02 3.77472C170.02 3.25354 169.549 2.83104 168.967 2.83104C168.385 2.83104 167.914 3.25354 167.914 3.77472C167.914 4.29589 168.385 4.71839 168.967 4.71839Z" fill="#3F3D56"/>
<path d="M171.775 4.71839C172.356 4.71839 172.828 4.29589 172.828 3.77472C172.828 3.25354 172.356 2.83104 171.775 2.83104C171.193 2.83104 170.722 3.25354 170.722 3.77472C170.722 4.29589 171.193 4.71839 171.775 4.71839Z" fill="#3F3D56"/>
<path d="M92.2839 19.0308C91.9935 19.0308 91.7574 19.2425 91.7574 19.5027C91.7574 19.6295 91.8121 19.7469 91.9113 19.8335C92.0114 19.9254 92.1425 19.9745 92.2839 19.9745H171.073C171.363 19.9745 171.599 19.7629 171.599 19.5027C171.599 19.3758 171.545 19.2585 171.446 19.1718C171.345 19.08 171.214 19.0308 171.073 19.0308H92.2839Z" fill="#E6E6E6"/>
<path d="M161.245 18.8736V20.1318H92.2838C92.0908 20.1318 91.9153 20.0626 91.7889 19.9462C91.6591 19.833 91.5818 19.6757 91.5818 19.5027C91.5818 19.1567 91.8977 18.8736 92.2838 18.8736H161.245Z" fill="#63FDFF"/>
<path d="M170.196 16.5144H163.176C162.402 16.5144 161.772 15.9501 161.772 15.2561C161.772 14.5622 162.402 13.9979 163.176 13.9979H170.196C170.97 13.9979 171.599 14.5622 171.599 15.2561C171.599 15.9501 170.97 16.5144 170.196 16.5144Z" fill="#E6E6E6"/>
<path d="M124.216 9.90861H92.8103C92.0362 9.90861 91.4064 9.34431 91.4064 8.65037C91.4064 7.95644 92.0362 7.39214 92.8103 7.39214H124.216C124.99 7.39214 125.62 7.95644 125.62 8.65037C125.62 9.34431 124.99 9.90861 124.216 9.90861Z" fill="#E6E6E6"/>
<path d="M92.2839 33.186C91.9935 33.186 91.7574 33.3977 91.7574 33.6579C91.7574 33.7847 91.8121 33.9021 91.9113 33.9887C92.0114 34.0805 92.1425 34.1297 92.2839 34.1297H171.073C171.363 34.1297 171.599 33.918 171.599 33.6579C171.599 33.531 171.545 33.4136 171.446 33.327C171.345 33.2352 171.214 33.186 171.073 33.186H92.2839Z" fill="#E6E6E6"/>
<path d="M134.219 33.0287V34.287H92.2838C92.0908 34.287 91.9153 34.2178 91.7889 34.1014C91.6591 33.9881 91.5818 33.8309 91.5818 33.6578C91.5818 33.3118 91.8977 33.0287 92.2838 33.0287H134.219Z" fill="#63FDFF"/>
<path d="M170.196 30.6695H163.176C162.402 30.6695 161.772 30.1052 161.772 29.4113C161.772 28.7174 162.402 28.1531 163.176 28.1531H170.196C170.97 28.1531 171.599 28.7174 171.599 29.4113C171.599 30.1052 170.97 30.6695 170.196 30.6695Z" fill="#E6E6E6"/>
</g>
<defs>
<clipPath id="clip0_4_785">
<rect width="212" height="192.431" fill="white"/>
</clipPath>
</defs>
</svg>
