<svg width="345" height="244" viewBox="0 0 345 244" fill="none" xmlns="http://www.w3.org/2000/svg">
<g clip-path="url(#clip0_4_604)" filter="url(#filter0_d_4_604)">
<path opacity="0.1" d="M114.522 243.863C131.297 243.863 144.896 241.679 144.896 238.984C144.896 236.29 131.297 234.106 114.522 234.106C97.7463 234.106 84.1472 236.29 84.1472 238.984C84.1472 241.679 97.7463 243.863 114.522 243.863Z" fill="#0D8587"/>
<path opacity="0.1" d="M279.633 244C300.566 244 317.536 241.816 317.536 239.122C317.536 236.427 300.566 234.243 279.633 234.243C258.7 234.243 241.731 236.427 241.731 239.122C241.731 241.816 258.7 244 279.633 244Z" fill="#0D8587"/>
<path opacity="0.1" d="M4.31419 105.426H35.9512V148.547H6.63031C6.55238 148.989 6.47757 149.435 6.39652 149.881H35.9512V184.657C35.8982 184.641 35.8515 184.623 35.8016 184.604C34.9662 184.273 34.137 183.924 33.3078 183.55L32.7778 183.31C31.9466 182.917 31.1153 182.502 30.284 182.063C29.9941 181.91 29.7042 181.752 29.4174 181.589C24.8026 179.004 20.6103 175.729 16.9858 171.876C16.8798 171.773 16.7801 171.664 16.6741 171.564C16.1691 171.016 15.6735 170.461 15.1934 169.893L14.6635 169.27C14.0961 168.575 13.5475 167.861 13.0144 167.138C12.9365 167.032 12.8617 166.926 12.7807 166.826C10.6128 163.82 8.8127 160.565 7.41898 157.131C7.37534 157.029 7.33793 156.916 7.2974 156.82C6.8693 155.718 6.49003 154.606 6.15961 153.484C6.01621 153.014 5.87905 152.549 5.7606 152.06C5.71696 151.916 5.67955 151.776 5.64526 151.636C3.87466 144.725 3.6658 137.546 3.6658 130.417C3.6658 129.584 3.6658 128.749 3.6658 127.923C3.6658 125.039 3.70009 122.137 3.74997 119.238C3.74997 118.487 3.78114 117.739 3.79673 116.984C3.84037 115.07 3.90271 113.156 3.98376 111.242C4.00247 110.709 4.0274 110.179 4.05546 109.649C4.05546 109.344 4.07105 109.038 4.10222 108.733C4.17703 107.623 4.23938 106.523 4.31419 105.426Z" fill="#0D8587"/>
<path opacity="0.1" d="M35.9513 57.4136H18.5975C21.4185 52.9982 24.5007 48.7554 27.8277 44.7077C30.4057 41.5405 33.127 38.4545 35.9513 35.4806V57.4136Z" fill="#0D8587"/>
<path opacity="0.1" d="M35.9513 58.7478V104.091H4.414C4.414 103.96 4.43582 103.826 4.44517 103.695C4.47323 103.337 4.50128 102.979 4.53246 102.623C4.56675 102.205 4.60415 101.785 4.64468 101.376C4.6852 100.968 4.72884 100.469 4.7756 100.017C4.82236 99.5651 4.866 99.1069 4.919 98.6549C4.97199 98.2029 5.01875 97.7509 5.07486 97.302C5.13097 96.8531 5.18085 96.398 5.24007 95.9491C5.28683 95.575 5.33671 95.2041 5.38658 94.83C5.45828 94.3032 5.5331 93.7733 5.61414 93.2496C5.61414 93.1716 5.63596 93.0906 5.64843 93.0158C6.21739 89.1821 6.99263 85.3818 7.97079 81.6316C8.99468 77.6976 10.3022 73.8429 11.8829 70.0977C13.563 66.1799 15.5302 62.3915 17.7683 58.7634L35.9513 58.7478Z" fill="#0D8587"/>
<path opacity="0.1" d="M43.5044 105.422V148.547H111.077V105.422H43.5044ZM43.5044 149.878V186.911C43.8909 186.992 44.2743 187.07 44.6546 187.135C45.1721 187.235 45.6864 187.325 46.2133 187.403C46.313 187.419 46.4159 187.434 46.525 187.444C46.7307 187.478 46.9427 187.506 47.1484 187.534C47.669 187.606 48.1865 187.665 48.7071 187.712C48.9533 187.737 49.2027 187.759 49.4521 187.777L50.0537 187.824C50.381 187.849 50.7052 187.868 51.0263 187.877C51.2258 187.877 51.4253 187.896 51.631 187.902C51.7869 187.902 51.9428 187.902 52.1049 187.902C52.267 187.902 52.4976 187.902 52.694 187.902C52.9621 187.902 53.2302 187.902 53.4952 187.902H53.8536C54.1217 187.902 54.3898 187.902 54.6548 187.877H54.6735C54.8574 187.877 55.0444 187.877 55.2315 187.852C55.2834 187.855 55.3354 187.855 55.3873 187.852C55.5432 187.852 55.6991 187.852 55.8487 187.83H55.9578L57.0021 187.749C57.345 187.718 57.691 187.677 58.0401 187.64L58.7509 187.556C61.6424 187.151 64.5017 186.542 67.3077 185.735C73.6108 183.977 79.7767 181.518 86.0767 179.716C94.2221 177.394 103.222 176.253 111.093 179.093V149.878H43.5044ZM111.077 57.4136V0.00314478C103.679 -0.0770072 96.301 0.788281 89.1223 2.578C72.0117 6.87669 56.6592 16.2004 43.5044 28.1083V57.4105H46.8959V58.7416H43.5044V104.091H111.077V58.7447H60.8207V57.4136H111.077ZM197.871 38.0212C193.638 37.8716 189.429 36.5311 185.623 34.4613C178.344 30.5024 172.531 24.3894 166.034 19.2304C152.537 8.48519 135.797 2.0013 118.624 0.392802V57.4136H215.087L215.327 57.1611L197.871 38.0212ZM206.658 36.4626L215.976 46.6871V33.7817C212.855 34.1683 210.122 35.0878 206.671 36.4501L206.658 36.4626ZM215.976 196.107V149.878H196.122C196.069 149.681 196.016 149.482 195.954 149.282C196.013 149.482 196.063 149.681 196.119 149.878H118.636V183.31C119.372 183.856 120.098 184.429 120.819 185.012C121.595 185.636 122.362 186.293 123.132 186.939L123.908 187.581C124.279 187.893 124.653 188.204 125.03 188.497C125.778 189.104 126.533 189.703 127.296 190.293C127.673 190.605 128.06 190.885 128.443 191.178C134.53 195.832 140.952 200.032 147.655 203.744C149.157 204.575 150.674 205.387 152.203 206.178C153.222 206.699 154.248 207.216 155.277 207.718C156.823 208.473 158.381 209.2 159.953 209.9C174.437 216.402 189.754 220.864 205.464 223.158C208.954 223.673 212.456 224.079 215.973 224.374V196.103H216.284L215.976 196.107ZM118.636 58.7447V104.091H215.988V58.7447H118.636ZM118.636 105.422V148.547H215.988V105.422H118.636ZM223.545 33.7256V48.1211L235.437 35.0723C231.497 34.4363 227.533 33.9823 223.545 33.71V33.7256ZM223.545 105.438V148.547H318.231V105.422L223.545 105.438ZM317.885 199.529L318.219 149.878H223.545V224.869C229.643 225.126 235.752 225.053 241.843 224.651H241.949C244.858 224.468 247.754 224.202 250.637 223.853H250.702C266.08 222.064 281.116 218.051 295.341 211.942M336.489 112.524C336.134 111.685 335.763 110.853 335.385 110.03C334.681 108.471 333.936 106.956 333.169 105.441H325.781V148.547H344.46C344.45 136.339 341.361 123.87 336.498 112.508L336.489 112.524ZM325.781 149.893V192.6C331.043 187.556 335.488 181.786 338.69 175.19C342.54 167.247 344.301 158.646 344.444 149.887L325.781 149.893ZM325.781 92.8724V104.095H332.477C330.451 100.231 328.219 96.48 325.79 92.8568L325.781 92.8724ZM261.566 42.1858C261.073 41.9988 260.581 41.8087 260.085 41.6247C254.858 39.6943 249.516 38.089 244.09 36.8179L225.892 56.7902L225.543 57.1611L225.777 57.4167H290.547C281.526 51.2073 271.801 46.0894 261.575 42.1702L261.566 42.1858ZM292.445 58.7603H224.872L223.545 59.976V104.091H235.184H235.203H318.244V82.7226C310.732 73.6376 302.062 65.5763 292.455 58.7447L292.445 58.7603Z" fill="#0D8587"/>
<path opacity="0.1" d="M35.9513 81.6191V104.091H4.414C4.414 103.961 4.43582 103.826 4.44517 103.696C4.47323 103.337 4.50128 102.979 4.53246 102.623C4.56675 102.205 4.60415 101.785 4.64468 101.376C4.6852 100.968 4.72884 100.469 4.7756 100.017C4.82236 99.5652 4.866 99.1069 4.919 98.6549C4.97199 98.2029 5.01875 97.7509 5.07486 97.3021C5.13097 96.8532 5.18085 96.398 5.24007 95.9492C5.28683 95.5751 5.33671 95.2041 5.38658 94.8301C5.45828 94.3033 5.5331 93.7733 5.61414 93.2496C5.61414 93.1717 5.63596 93.0906 5.64843 93.0158C6.21739 89.1821 6.99263 85.3819 7.97079 81.6316L35.9513 81.6191Z" fill="#0D8587"/>
<path opacity="0.1" d="M4.31419 105.426H35.9512V148.547H6.63031C6.55238 148.989 6.47757 149.435 6.39652 149.881H35.9512V184.657C35.8982 184.641 35.8515 184.623 35.8016 184.604C34.9662 184.273 34.137 183.924 33.3078 183.55L32.7778 183.31C31.9466 182.917 31.1153 182.502 30.284 182.063C29.9941 181.91 29.7042 181.752 29.4174 181.589C24.8026 179.004 20.6103 175.729 16.9858 171.876C16.8798 171.773 16.7801 171.664 16.6741 171.564C16.1691 171.016 15.6735 170.461 15.1934 169.893L14.6635 169.27C14.0961 168.575 13.5475 167.861 13.0144 167.138C12.9365 167.032 12.8617 166.926 12.7807 166.826C10.6128 163.82 8.8127 160.565 7.41898 157.131C7.37534 157.029 7.33793 156.916 7.2974 156.82C6.8693 155.718 6.49003 154.606 6.15961 153.484C6.01621 153.014 5.87905 152.549 5.7606 152.06C5.71696 151.916 5.67955 151.776 5.64526 151.636C3.87466 144.725 3.6658 137.546 3.6658 130.417C3.6658 129.584 3.6658 128.749 3.6658 127.923C3.6658 125.039 3.70009 122.137 3.74997 119.238C3.74997 118.487 3.78114 117.739 3.79673 116.984C3.84037 115.07 3.90271 113.156 3.98376 111.242C4.00247 110.709 4.0274 110.179 4.05546 109.649C4.05546 109.344 4.07105 109.038 4.10222 108.733C4.17703 107.623 4.23938 106.523 4.31419 105.426Z" fill="#0D8587"/>
<path opacity="0.1" d="M67.2921 65.2379V104.091H43.5044V65.2379H46.8959V52.0831H60.8176V65.2379H67.2921Z" fill="#0D8587"/>
<path opacity="0.1" d="M67.2921 105.422H43.5074V148.543H67.2921V105.422Z" fill="#0D8587"/>
<path opacity="0.1" d="M43.5044 149.881H67.2921V185.729C64.4861 186.535 61.6268 187.143 58.7353 187.547L58.0245 187.634C57.6754 187.674 57.3294 187.709 56.9865 187.743C56.6436 187.777 56.2882 187.802 55.9422 187.824H55.8331C55.6835 187.824 55.5214 187.843 55.3749 187.846H55.2159C55.0289 187.846 54.8418 187.864 54.6548 187.871C54.3898 187.886 54.1248 187.889 53.8536 187.893C53.7383 187.893 53.6292 187.893 53.5139 187.893C53.2458 187.893 52.9808 187.893 52.7127 187.893H52.1236C51.9646 187.893 51.8118 187.893 51.6466 187.893L51.045 187.871C50.7333 187.871 50.3966 187.836 50.0724 187.815L49.4739 187.771L48.7289 187.702C48.2052 187.656 47.6846 187.596 47.1703 187.525L46.5468 187.437L46.2351 187.394C45.7145 187.313 45.2001 187.225 44.6765 187.126C44.293 187.06 43.9127 186.979 43.5262 186.901L43.5044 149.881Z" fill="#0D8587"/>
<path opacity="0.1" d="M215.988 60.6493H196.375V104.088H215.988V60.6493Z" fill="#0D8587"/>
<path opacity="0.1" d="M215.991 105.422V148.547H118.636V129.946H170.492V140.919H196.375V105.422H215.991Z" fill="#0D8587"/>
<path opacity="0.1" d="M216.3 196.116H215.988V224.405C212.476 224.108 208.974 223.704 205.483 223.192C189.765 220.891 174.442 216.42 159.952 209.907C155.769 208.024 151.671 205.969 147.658 203.741C140.955 200.027 134.533 195.827 128.443 191.175C126.914 190.003 125.404 188.804 123.914 187.578C122.882 186.727 121.857 185.854 120.818 185.006C120.098 184.423 119.372 183.85 118.636 183.301V149.881H196.116C196.063 149.681 196.01 149.482 195.954 149.285C196.013 149.482 196.069 149.681 196.122 149.881H215.988V196.097C216.094 196.1 216.197 196.11 216.3 196.116Z" fill="#0D8587"/>
<path opacity="0.1" d="M267.142 57.4135H254.362V53.4422H260.091V41.6122C260.588 41.793 261.082 41.979 261.575 42.1702V53.4422H267.142V57.4135Z" fill="#0D8587"/>
<path opacity="0.1" d="M297.935 104.091H235.191C235.191 104.091 235.191 104.091 235.212 104.107L235.184 104.091H223.545V60.6524H226.843V92.7602H241.915V73.7449H254.365V58.7478H267.146V73.7574H279.596V92.7726H297.935V104.091Z" fill="#0D8587"/>
<path opacity="0.1" d="M223.545 105.422V148.547H297.935V105.422H223.545ZM318.128 199.308L318.231 165.174H297.935V149.899H223.545V224.869C229.644 225.126 235.752 225.053 241.843 224.651H241.949C244.858 224.468 247.754 224.202 250.637 223.853H250.702C266.08 222.064 281.116 218.051 295.341 211.942" fill="#0D8587"/>
<path opacity="0.1" d="M327.103 149.881H344.457C344.304 158.637 342.546 167.238 338.699 175.18C335.498 181.78 331.049 187.55 325.794 192.59V165.158H327.103V149.881Z" fill="#0D8587"/>
<path opacity="0.1" d="M344.466 148.547H327.103V112.508H336.498C341.361 123.87 344.45 136.339 344.466 148.547Z" fill="#0D8587"/>
<path opacity="0.1" d="M215.991 72.7256H205.483V86.3449H215.991V72.7256Z" fill="#0D8587"/>
<path opacity="0.1" d="M215.991 100.955H205.483V104.091H215.991V100.955Z" fill="#0D8587"/>
<path opacity="0.1" d="M215.991 105.422H205.483V114.572H215.991V105.422Z" fill="#0D8587"/>
<path opacity="0.1" d="M215.991 129.185H205.483V142.805H215.991V129.185Z" fill="#0D8587"/>
<path opacity="0.1" d="M215.991 157.415H205.483V171.034H215.991V157.415Z" fill="#0D8587"/>
<path opacity="0.1" d="M215.988 196.097C216.094 196.097 216.197 196.097 216.3 196.116H215.988V199.28H205.483V185.645H215.988V196.097Z" fill="#0D8587"/>
<path opacity="0.1" d="M215.988 213.869V224.389C212.476 224.092 208.974 223.688 205.483 223.177V213.869H215.988Z" fill="#0D8587"/>
<path opacity="0.1" d="M163.671 147.546H118.636V148.547H163.671V147.546Z" fill="#0D8587"/>
<path opacity="0.1" d="M163.671 149.878H118.636V153.712H163.671V149.878Z" fill="#0D8587"/>
<path opacity="0.1" d="M163.671 166.281H118.636V172.446H163.671V166.281Z" fill="#0D8587"/>
<path opacity="0.1" d="M163.668 185.015V191.181H128.443C126.914 190.013 125.403 188.814 123.911 187.584C122.879 186.733 121.857 185.86 120.815 185.015H163.668Z" fill="#0D8587"/>
<path opacity="0.1" d="M163.668 203.747V209.907H159.95C155.77 208.022 151.673 205.965 147.658 203.738L163.668 203.747Z" fill="#0D8587"/>
<path opacity="0.1" d="M250.711 109.603H241.846V118.468H250.711V109.603Z" fill="#0D8587"/>
<path opacity="0.1" d="M58.7571 68.2959H49.8916V77.1614H58.7571V68.2959Z" fill="#0D8587"/>
<path opacity="0.1" d="M58.7571 88.8885H49.8916V97.754H58.7571V88.8885Z" fill="#0D8587"/>
<path opacity="0.1" d="M58.7571 109.481H49.8916V118.347H58.7571V109.481Z" fill="#0D8587"/>
<path opacity="0.1" d="M58.7571 130.071H49.8916V138.936H58.7571V130.071Z" fill="#0D8587"/>
<path opacity="0.1" d="M58.7571 150.663H49.8916V159.529H58.7571V150.663Z" fill="#0D8587"/>
<path opacity="0.1" d="M58.7571 171.256H49.8916V180.121H58.7571V171.256Z" fill="#0D8587"/>
<path opacity="0.1" d="M284.556 109.603H275.69V118.468H284.556V109.603Z" fill="#0D8587"/>
<path opacity="0.1" d="M250.711 131.47H241.846V140.336H250.711V131.47Z" fill="#0D8587"/>
<path opacity="0.1" d="M284.556 131.47H275.69V140.336H284.556V131.47Z" fill="#0D8587"/>
<path opacity="0.1" d="M250.711 153.335H241.846V162.2H250.711V153.335Z" fill="#0D8587"/>
<path opacity="0.1" d="M284.556 153.335H275.69V162.2H284.556V153.335Z" fill="#0D8587"/>
<path opacity="0.1" d="M250.711 175.202H241.846V184.068H250.711V175.202Z" fill="#0D8587"/>
<path opacity="0.1" d="M284.556 175.202H275.69V184.068H284.556V175.202Z" fill="#0D8587"/>
<path opacity="0.1" d="M250.711 197.07H241.846V205.935H250.711V197.07Z" fill="#0D8587"/>
<path opacity="0.1" d="M284.556 197.07H275.69V205.935H284.556V197.07Z" fill="#0D8587"/>
<path opacity="0.1" d="M241.846 224.651V218.934H250.708V223.838L241.846 224.651Z" fill="#0D8587"/>
<path opacity="0.1" d="M5.61099 93.0095V98.0813H35.9512V93.0095H5.61099ZM8.63473 97.7633H6.15963V93.3212H8.65343L8.63473 97.7633ZM11.6553 97.7633H9.16155V93.3212H11.6553V97.7633ZM14.6697 97.7633H12.1759V93.3212H14.6697V97.7633ZM17.6904 97.7633H15.1997V93.3212H17.6935L17.6904 97.7633ZM20.7079 97.7633H18.2141V93.3212H20.7079V97.7633ZM23.7285 97.7633H21.2347V93.3212H23.7285V97.7633ZM26.7491 97.7633H24.2553V93.3212H26.7491V97.7633ZM29.7666 97.7633H27.2728V93.3212H29.7666V97.7633ZM32.7841 97.7633H30.2903V93.3212H32.7841V97.7633ZM35.8016 97.7633H33.3078V93.3212H35.8016V97.7633Z" fill="#0D8587"/>
<path opacity="0.1" d="M5.61099 107.767V112.838H35.9512V107.767H5.61099ZM8.63473 112.517H6.15963V108.088H8.65343L8.63473 112.517ZM11.6553 112.517H9.16155V108.088H11.6553V112.517ZM14.6697 112.517H12.1759V108.088H14.6697V112.517ZM17.6904 112.517H15.1997V108.088H17.6935L17.6904 112.517ZM20.7079 112.517H18.2141V108.088H20.7079V112.517ZM23.7285 112.517H21.2347V108.088H23.7285V112.517ZM26.7491 112.517H24.2553V108.088H26.7491V112.517ZM29.7666 112.517H27.2728V108.088H29.7666V112.517ZM32.7841 112.517H30.2903V108.088H32.7841V112.517ZM35.8016 112.517H33.3078V108.088H35.8016V112.517Z" fill="#0D8587"/>
<path opacity="0.1" d="M5.61099 122.53V127.611H35.9512V122.53H5.61099ZM8.63473 127.281H6.15963V122.848H8.65343L8.63473 127.281ZM11.6553 127.281H9.16155V122.848H11.6553V127.281ZM14.6697 127.281H12.1759V122.848H14.6697V127.281ZM17.6904 127.281H15.1997V122.848H17.6935L17.6904 127.281ZM20.7079 127.281H18.2141V122.848H20.7079V127.281ZM23.7285 127.281H21.2347V122.848H23.7285V127.281ZM26.7491 127.281H24.2553V122.848H26.7491V127.281ZM29.7666 127.281H27.2728V122.848H29.7666V127.281ZM32.7841 127.281H30.2903V122.848H32.7841V127.281ZM35.8016 127.281H33.3078V122.848H35.8016V127.281Z" fill="#0D8587"/>
<path opacity="0.1" d="M5.61099 137.293V142.359H35.9512V137.293H5.61099ZM8.63473 142.044H6.15963V137.608H8.65343L8.63473 142.044ZM11.6553 142.044H9.16155V137.608H11.6553V142.044ZM14.6697 142.044H12.1759V137.608H14.6697V142.044ZM17.6904 142.044H15.1997V137.608H17.6935L17.6904 142.044ZM20.7079 142.044H18.2141V137.608H20.7079V142.044ZM23.7285 142.044H21.2347V137.608H23.7285V142.044ZM26.7491 142.044H24.2553V137.608H26.7491V142.044ZM29.7666 142.044H27.2728V137.608H29.7666V142.044ZM32.7841 142.044H30.2903V137.608H32.7841V142.044ZM35.8016 142.044H33.3078V137.608H35.8016V142.044Z" fill="#0D8587"/>
<path opacity="0.1" d="M5.74188 152.053C5.86346 152.53 6.00061 153.007 6.14401 153.478V152.371H8.63781V156.804H7.30363C7.34415 156.907 7.38467 157.019 7.4252 157.116H35.9512V152.053H5.74188ZM11.6647 156.804H9.17086V152.371H11.6647V156.804ZM14.6791 156.804H12.1852V152.371H14.6791V156.804ZM17.6997 156.804H15.1996V152.371H17.6934L17.6997 156.804ZM20.7172 156.804H18.2234V152.371H20.7172V156.804ZM23.7378 156.804H21.244V152.371H23.7378V156.804ZM26.7584 156.804H24.2646V152.371H26.7584V156.804ZM29.7759 156.804H27.2821V152.371H29.7759V156.804ZM32.7934 156.804H30.2996V152.371H32.7934V156.804ZM35.8109 156.804H33.3171V152.371H35.8109V156.804Z" fill="#0D8587"/>
<path opacity="0.1" d="M12.787 166.817C12.8649 166.917 12.9398 167.029 13.0208 167.128H14.6698V169.258C14.8475 169.47 15.0221 169.682 15.2029 169.881V167.116H17.6967V171.564H16.6867C16.7865 171.667 16.8831 171.776 16.9984 171.876H35.9607V166.817H12.787ZM20.708 171.564H18.2142V167.135H20.708V171.564ZM23.7286 171.564H21.2348V167.135H23.7286V171.564ZM26.7492 171.564H24.2554V167.135H26.7492V171.564ZM29.7667 171.564H27.2729V167.135H29.7667V171.564ZM32.7842 171.564H30.2904V167.135H32.7842V171.564ZM35.8017 171.564H33.3079V167.135H35.8017V171.564Z" fill="#0D8587"/>
<path opacity="0.1" d="M29.43 181.577C29.7137 181.739 30.0036 181.889 30.2966 182.051V181.895H32.7904V183.298L33.3204 183.544V181.895H35.8142V184.591C35.862 184.615 35.9121 184.634 35.9638 184.648V181.577H29.43Z" fill="#0D8587"/>
<path opacity="0.1" d="M195.954 149.282C196.013 149.482 196.063 149.681 196.119 149.878C196.069 149.681 196.016 149.482 195.954 149.282ZM46.9084 57.4042V58.7352H60.8332V57.4042H46.9084ZM195.954 149.282C196.013 149.482 196.063 149.681 196.119 149.878C196.069 149.681 196.016 149.482 195.954 149.282ZM195.954 149.282C196.013 149.482 196.063 149.681 196.119 149.878C196.069 149.681 196.016 149.482 195.954 149.282Z" fill="#0D8587"/>
<path d="M143.892 118.353C143.892 118.353 142.664 118.181 142.664 116.392C142.664 114.603 141.785 111.261 141.785 111.261C141.785 111.245 141.025 105.441 139.974 104.518C138.924 103.596 137.574 98.178 137.574 98.178C137.574 98.178 137.343 95.2384 136.872 94.6056C136.402 93.9728 135.766 92.4235 134.827 90.2134C133.889 88.0033 129.977 86.4727 129.977 86.4727C129.977 86.4727 122.904 82.3704 120.9 81.0331C120.717 80.9232 120.547 80.7947 120.391 80.6496C120.042 80.1914 118.521 80.1821 118.521 80.1821C118.362 79.1783 118.209 78.0249 118.159 76.9806C118.159 76.8684 118.159 76.7562 118.144 76.644C120.379 75.3228 122.062 73.2398 122.885 70.7773C122.923 70.6588 122.954 70.5342 122.988 70.4157C123.122 70.3716 123.245 70.3 123.35 70.2055C123.455 70.1111 123.538 69.9958 123.596 69.8671C123.777 69.4649 123.78 68.9942 124.004 68.6202C124.266 68.1775 124.765 67.9406 125.158 67.6071C126.149 66.7654 126.405 65.347 126.358 64.0565C126.327 63.0122 126.158 61.9586 126.224 60.9205L126.243 60.6587C126.261 60.5028 126.283 60.347 126.311 60.1973C126.464 59.4243 126.797 58.6948 126.984 57.928C127.171 57.1611 127.19 56.2976 126.754 55.6368C126.115 54.6673 124.784 54.4741 123.615 54.3743C122.29 54.2621 121.105 54.4086 120.257 53.3082C119.861 52.7331 119.414 52.1938 118.923 51.6966C118.749 51.5345 117.053 50.4996 117.053 50.431C115.398 49.6644 113.522 49.5205 111.769 50.0257C110.89 50.2813 110.061 50.6991 109.169 50.9079C107.246 51.363 105.033 50.8705 103.399 51.9709C102.489 52.5944 101.944 53.5856 101.432 54.552C101.017 55.3479 100.595 56.1428 100.167 56.9367C99.4778 58.2428 98.7764 59.5708 98.4865 61.0172C98.4255 61.3319 98.388 61.6508 98.3743 61.9711V61.9866C98.3743 62.102 98.3743 62.2173 98.3743 62.3327V62.4792C98.3743 62.5883 98.3743 62.6943 98.393 62.7909C98.4117 62.8875 98.4085 62.9187 98.4179 62.9842C98.4272 63.0496 98.4428 63.1961 98.4615 63.2959C98.4802 63.3956 98.5176 63.5702 98.5551 63.7074C98.5706 63.7666 98.5925 63.8227 98.6112 63.8788C98.6423 63.9848 98.6797 64.0877 98.7203 64.1905C98.7421 64.2435 98.7639 64.2996 98.7888 64.3526C98.8356 64.4617 98.8917 64.5677 98.9478 64.6644C98.9728 64.708 98.9915 64.7485 99.0164 64.7891C99.1034 64.934 99.1992 65.0735 99.3032 65.2068C99.9703 66.0391 100.952 66.569 101.679 67.3483C101.679 67.3795 101.679 67.4107 101.679 67.4387C101.679 67.526 101.679 67.6102 101.679 67.6974C101.717 69.4355 102.18 71.1378 103.026 72.6563C103.873 74.1747 105.077 75.4634 106.535 76.4102C106.535 76.5286 106.551 76.6502 106.557 76.7687C106.618 77.694 106.606 78.6226 106.523 79.5461C106.396 79.3966 106.237 79.2776 106.058 79.1977C105.879 79.1178 105.684 79.0793 105.488 79.0848C105.354 79.0782 105.22 79.0898 105.089 79.1191L105.061 79.0973V79.1253C104.375 79.2936 103.53 80.0075 102.723 82.0368C102.723 82.0368 100.266 84.8049 98.3961 84.6896C96.5257 84.5743 91.7906 87.57 91.7906 87.57C91.7906 87.57 87.1708 90.5688 86.1796 93.6237C85.6255 95.356 84.9612 97.051 84.1907 98.6986L78.4799 110.466L77.4263 119.802C77.4263 119.802 78.0092 123.955 77.8939 124.587C77.7785 125.22 80.2911 130.928 80.2911 130.928C80.2911 130.928 88.5923 145.513 91.9839 146.262L92.227 146.09C92.3721 146.166 92.526 146.224 92.6853 146.262L93.3835 145.769C93.4255 146.318 93.4077 146.87 93.3305 147.415C92.863 148.855 93.5051 158.254 94.3218 160.096C95.1385 161.938 94.8486 186.094 94.8486 186.094L94.7333 188.226C94.7333 188.226 94.7333 188.295 94.7614 188.413L94.7333 188.918L94.8175 188.962C94.9049 189.638 94.8764 190.324 94.7333 190.991C94.4403 191.926 94.3218 194.57 94.3218 194.57C94.3218 194.57 91.987 209.495 93.0936 212.494C94.2003 215.493 95.1417 218.778 95.1417 218.778C95.1417 218.778 96.3106 222.519 95.1978 223.158C94.0849 223.797 90.9209 224.869 91.5724 226.428C92.1647 227.868 94.4122 231.727 94.7458 232.292L94.7177 232.588L94.2595 237.554C94.3337 238.209 94.5115 238.849 94.7863 239.449C95.2882 240.531 96.2639 241.653 98.1186 241.531C98.4304 241.509 98.792 241.472 99.1411 241.425C102.536 240.97 106.716 239.455 106.716 239.455C106.499 239.317 106.3 239.153 106.124 238.966C105.957 238.804 105.825 238.61 105.735 238.396C105.646 238.181 105.601 237.951 105.603 237.719C105.653 236.815 103.96 232.507 103.54 231.447C103.474 231.294 103.44 231.207 103.44 231.207C103.44 231.207 107.299 227.173 106.657 223.598C106.657 223.598 102.386 221.104 103.792 219.735C105.198 218.367 107.71 214.436 107.71 214.436C107.71 214.436 107.826 199.738 107.71 197.544C107.59 196.02 107.662 194.488 107.926 192.983C107.972 192.755 108.028 192.534 108.088 192.316C110.032 192.606 111.995 192.755 113.961 192.762C114.677 192.762 115.407 192.762 116.143 192.718C116.143 192.926 116.152 193.15 116.171 193.391C116.333 197.032 116.635 203.416 116.881 205.789C117.231 209.19 119.16 218.354 119.16 218.354C119.16 218.354 115.479 220.717 119.802 226.54C119.802 226.54 119.802 228.651 119.515 228.956C119.209 229.955 118.963 230.971 118.777 231.999C118.596 233.096 118.521 234.206 118.814 234.782C119.515 236.16 123.724 236.048 123.724 236.048L123.827 236.029C124.621 235.947 125.424 236.024 126.189 236.254C126.953 236.485 127.665 236.865 128.281 237.373C129.88 238.657 135.95 238.093 139.235 237.684C140.523 237.522 141.383 237.373 141.383 237.373C141.425 237.227 141.44 237.075 141.427 236.924C141.392 236.117 140.76 234.346 136.47 232.765C136.47 232.765 132.436 230.053 132.493 227.691H132.408H131.941C132.281 227.672 132.499 227.691 132.499 227.691C132.499 227.691 130.918 221.924 131.564 221.456C132.209 220.988 130.276 214.598 130.276 214.598C130.276 214.598 129.17 203.875 129.11 203.123C129.113 202.479 129.211 201.838 129.4 201.222L129.11 195.343C129.11 195.343 129.054 193.388 129.11 192.752C129.101 192.2 129.056 191.65 128.976 191.103C128.948 190.885 128.92 190.658 128.889 190.433C130.401 190.05 131.383 189.694 131.383 189.694L131.208 169.23C132.493 166.736 132.73 161.265 132.723 157.384C132.723 154.89 132.611 153.045 132.611 153.045L134.366 150.18C134.366 150.18 134.771 146.751 134.129 146C133.845 145.66 133.973 145.308 134.207 145.018C134.329 144.922 134.457 144.834 134.591 144.756C134.591 144.756 134.572 144.728 134.55 144.687C134.673 144.585 134.803 144.492 134.94 144.41C134.94 144.41 134.316 143.444 134.874 143.035C135.398 143.391 135.865 143.659 136.221 143.877C136.196 144.104 136.171 144.235 136.171 144.235L136.321 143.924C136.663 144.117 136.872 144.235 136.872 144.235C136.872 144.235 139.622 138.758 139.563 137.951C139.503 137.144 141.433 133.743 141.433 133.743C141.433 133.743 141.667 131.957 142.72 131.208C143.774 130.46 143.537 125.039 143.537 125.039C143.537 125.039 143.83 122.215 144.531 121.062C145.233 119.908 143.892 118.353 143.892 118.353ZM91.2856 115.949L91.3386 117.256C91.0269 116.754 90.8024 116.392 90.8024 116.392L91.2856 115.949Z" fill="url(#paint0_linear_4_604)"/>
<path d="M137.022 141.869L136.349 144.737C136.349 144.737 130.956 141.985 129.983 138.487C129.011 134.99 131.611 133.662 131.611 133.662L136.636 135.791L137.022 141.869Z" fill="white"/>
<path opacity="0.1" d="M137.022 141.869L136.349 144.737C136.349 144.737 130.956 141.985 129.983 138.487C129.011 134.99 131.611 133.662 131.611 133.662L136.636 135.791L137.022 141.869Z" fill="black"/>
<path d="M106.757 239.474C106.757 239.474 101.769 241.307 98.34 241.537C96.5195 241.659 95.5625 240.543 95.07 239.467C94.8009 238.87 94.6274 238.233 94.5556 237.582L95.0014 232.641L95.2383 230.01L102.523 228.118L103.555 231.272L103.652 231.512C104.066 232.566 105.728 236.852 105.678 237.747C105.676 237.976 105.72 238.203 105.808 238.415C105.896 238.626 106.026 238.818 106.189 238.978C106.356 239.167 106.547 239.333 106.757 239.474Z" fill="white"/>
<path d="M140.825 236.961C140.838 237.111 140.823 237.262 140.781 237.407C140.781 237.407 130.114 239.187 127.932 237.407C127.317 236.887 126.6 236.501 125.827 236.275C125.054 236.048 124.242 235.986 123.443 236.092C123.443 236.092 119.316 236.204 118.627 234.845C118.34 234.274 118.415 233.168 118.593 232.077C118.774 231.054 119.016 230.043 119.316 229.05L119.481 228.919L120.463 228.13L131.96 227.79H132.047C131.991 230.141 135.95 232.837 135.95 232.837C140.155 234.396 140.775 236.157 140.825 236.961Z" fill="white"/>
<path opacity="0.1" d="M140.825 236.961C140.836 237.111 140.82 237.262 140.778 237.407C140.778 237.407 130.114 239.187 127.932 237.407C127.317 236.887 126.601 236.502 125.828 236.276C125.056 236.049 124.244 235.986 123.446 236.092C123.446 236.092 119.316 236.204 118.63 234.845C118.343 234.271 118.415 233.168 118.593 232.077C120.183 232.236 122.692 232.631 123.677 233.576C125.167 235.013 127.692 236.447 129.241 236.559C130.454 236.637 137.708 236.868 140.825 236.961Z" fill="black"/>
<path opacity="0.1" d="M106.757 239.474C106.757 239.474 101.769 241.307 98.3401 241.537C96.5196 241.659 95.5626 240.543 95.0732 239.464C96.3419 239.891 98.1032 240.34 99.029 239.929C100.126 239.443 104.017 239.128 106.199 238.994C106.365 239.175 106.552 239.337 106.757 239.474Z" fill="black"/>
<path d="M114.157 91.7626C110.042 90.1635 104.749 84.8797 106.071 82.4108C106.364 81.7878 106.539 81.1154 106.585 80.4283C106.67 79.4955 106.683 78.5575 106.623 77.6227C106.53 76.0919 106.346 74.5679 106.071 73.0591C106.071 73.0591 118.917 73.349 118.169 75.2412C117.951 75.796 117.916 76.7593 117.976 77.8378C118.035 78.9164 118.191 80.1353 118.353 81.1671C118.577 82.5823 118.802 83.6609 118.802 83.6609C118.802 83.6609 118.016 84.7613 117.555 84.8205C117.093 84.8797 120.061 94.0413 114.157 91.7626Z" fill="#CF6F80"/>
<path opacity="0.1" d="M103.642 231.512L103.546 231.618C99.7054 226.974 95.0606 232.762 95.0606 232.762L94.9921 232.641L95.229 230.01L102.514 228.118L103.546 231.272L103.642 231.512Z" fill="black"/>
<path opacity="0.1" d="M132.05 228.118C132.05 228.118 129.245 228.058 127.748 229.38C126.252 230.702 119.02 229.667 119.332 229.38C119.424 229.238 119.48 229.075 119.494 228.906L120.476 228.118L131.972 227.778C132.016 227.987 132.05 228.118 132.05 228.118Z" fill="black"/>
<path d="M108.421 191.643C108.212 192.159 108.054 192.695 107.947 193.242C107.687 194.74 107.615 196.264 107.732 197.78C107.848 199.962 107.732 214.586 107.732 214.586C107.732 214.586 105.267 218.485 103.892 219.86C102.517 221.235 106.697 223.704 106.697 223.704C107.321 227.257 103.543 231.272 103.543 231.272C99.7022 226.627 95.0575 232.419 95.0575 232.419C95.0575 232.419 92.5325 228.055 91.9029 226.497C91.2732 224.938 94.3686 223.859 95.4565 223.227C96.5445 222.594 95.4035 218.862 95.4035 218.862C95.4035 218.862 94.484 215.592 93.3929 212.609C92.3019 209.626 94.5962 194.775 94.5962 194.775C94.5962 194.775 94.7146 192.138 94.9983 191.219C95.1414 190.555 95.1699 189.872 95.0825 189.199C95.0638 188.971 95.0419 188.781 95.0264 188.653C95.0108 188.525 94.9983 188.466 94.9983 188.466L95.0419 188.391L96.6006 185.486C96.6006 185.486 109.169 189.813 108.421 191.643Z" fill="#0D8587"/>
<path d="M132.05 227.775C132.05 227.775 129.244 227.715 127.748 229.022C126.252 230.328 119.02 229.308 119.332 229.022C119.643 228.735 119.618 226.612 119.618 226.612C115.376 220.82 118.995 218.47 118.995 218.47C118.995 218.47 117.1 209.352 116.757 205.969C116.517 203.607 116.221 197.257 116.062 193.631C115.993 192.073 115.952 191 115.952 191L119.419 190.302L119.865 190.212L128.225 188.535C128.225 188.535 128.456 190.093 128.612 191.368C128.689 191.913 128.733 192.461 128.743 193.011C128.686 193.634 128.743 195.586 128.743 195.586L129.026 201.437C128.841 202.051 128.745 202.688 128.743 203.329C128.799 204.074 129.887 214.741 129.887 214.741C129.887 214.741 131.779 221.107 131.133 221.565C130.488 222.023 132.05 227.775 132.05 227.775Z" fill="#0D8587"/>
<path opacity="0.1" d="M118.169 75.2412C117.951 75.796 117.916 76.7593 117.976 77.8378C116.255 78.874 114.277 79.4038 112.269 79.3663C110.26 79.3288 108.303 78.7255 106.623 77.6259C106.53 76.0939 106.346 74.569 106.071 73.0591C106.071 73.0591 118.917 73.3428 118.169 75.2412Z" fill="black"/>
<path d="M123.135 68.352C123.137 69.4753 122.96 70.5919 122.611 71.6594C121.83 74.0515 120.228 76.0905 118.09 77.416C115.951 78.7415 113.412 79.2682 110.922 78.903C108.433 78.5378 106.152 77.3042 104.484 75.4202C102.816 73.5363 101.867 71.1232 101.806 68.6076C101.806 68.5204 101.806 68.4393 101.806 68.352C101.782 66.936 102.04 65.5294 102.565 64.2142C103.09 62.899 103.872 61.7015 104.865 60.6915C105.858 59.6816 107.042 58.8795 108.348 58.332C109.654 57.7844 111.056 57.5024 112.472 57.5024C113.888 57.5024 115.29 57.7844 116.596 58.332C117.902 58.8795 119.086 59.6816 120.079 60.6915C121.072 61.7015 121.854 62.899 122.379 64.2142C122.904 65.5294 123.162 66.936 123.138 68.352H123.135Z" fill="#CF6F80"/>
<path opacity="0.1" d="M114.157 91.7626C110.042 90.1634 104.749 84.8797 106.071 82.4108C106.364 81.7878 106.539 81.1154 106.585 80.4282L112.218 85.0573L115.703 87.9159L118.353 81.1701C118.577 82.5854 118.802 83.6639 118.802 83.6639C118.802 83.6639 118.016 84.7643 117.555 84.8235C117.093 84.8828 120.061 94.0413 114.157 91.7626Z" fill="black"/>
<path d="M128.724 112.221L124.02 191.244L117.885 191.646L102 145.825L104.606 91.4259L105.154 79.9326L112.218 85.7338L115.706 88.5924L118.434 81.6502L123.506 86.0705L128.724 112.221Z" fill="#0D8587"/>
<path opacity="0.1" d="M108.421 191.643C108.212 192.159 108.053 192.695 107.947 193.242C103.483 192.553 99.1479 191.198 95.0855 189.224L95.0013 189.18L95.0294 188.678L95.045 188.416L96.6036 185.511C96.6036 185.511 109.169 189.813 108.421 191.643Z" fill="black"/>
<path opacity="0.1" d="M119.491 193.254C118.35 193.448 117.199 193.579 116.043 193.647C115.974 192.088 115.934 191.016 115.934 191.016L119.4 190.318L119.491 193.254Z" fill="black"/>
<path opacity="0.1" d="M128.593 191.384C126.377 191.961 122.954 192.609 119.89 192.204L119.846 190.227L128.206 188.55C128.206 188.55 128.437 190.093 128.593 191.384Z" fill="black"/>
<path opacity="0.1" d="M119.833 192.565C107.053 194.747 95.3474 188.491 95.3474 188.491L95.4597 186.371C95.4597 186.371 95.7496 162.34 94.9453 160.498C94.1411 158.656 93.5145 149.313 93.9696 147.879C94.4247 146.445 92.3081 124.943 92.3081 124.943L91.9652 116.214L79.4152 111.13L85.0262 99.4342C85.7841 97.7944 86.4359 96.1076 86.9776 94.3842C87.9533 91.348 92.4827 88.3648 92.4827 88.3648C92.4827 88.3648 97.1274 85.3847 98.9635 85.4969C100.8 85.6092 103.206 82.8597 103.206 82.8597C104.983 78.3304 106.591 80.3815 106.591 80.3815C106.591 80.5966 106.591 80.3815 106.504 81.0517C105.881 86.0238 116.585 101.735 116.738 102.012L117.757 126.844L118.789 158.269L119.833 192.565Z" fill="black"/>
<path d="M119.491 192.565C106.71 194.747 95.0015 188.491 95.0015 188.491L95.1169 186.371C95.1169 186.371 95.4068 162.34 94.5994 160.498C93.792 158.656 93.1686 149.313 93.6268 147.879C94.085 146.446 91.9653 124.943 91.9653 124.943L91.6193 116.214L79.063 111.111L84.674 99.4155C85.4303 97.775 86.082 96.0883 86.6255 94.3656C87.598 91.3293 92.1305 88.3461 92.1305 88.3461C92.1305 88.3461 96.7752 85.366 98.6082 85.4783C100.441 85.5905 102.851 82.8411 102.851 82.8411C104.631 78.3117 106.591 80.3628 106.591 80.3628C106.591 80.5779 106.404 80.6746 106.504 81.033C107.876 85.8554 116.242 101.716 116.395 101.993L117.427 126.826L118.459 158.251L119.491 192.565Z" fill="white"/>
<path opacity="0.1" d="M116.046 102.701C114.671 102.128 107.389 93.8138 107.389 93.8138V91.9216C107.124 91.2982 105.55 91.6785 104.272 92.1149L104.821 80.6216L105.444 81.139C106.81 85.9583 115.887 102.424 116.046 102.701Z" fill="black"/>
<path d="M116.392 102.012C115.014 101.439 107.732 93.1248 107.732 93.1248V91.2327C107.467 90.6092 105.893 90.9895 104.615 91.4259L105.167 79.9326L105.79 80.4501C107.159 85.2694 116.239 101.738 116.392 102.012Z" fill="white"/>
<path opacity="0.1" d="M95.3475 143.475C95.5189 143.475 104.235 142.558 104.235 142.558C104.235 142.558 109.512 152.936 109.166 155.461C108.82 157.986 108.194 160.221 106.071 159.825C103.948 159.429 94.6461 160.137 94.6461 160.137L95.3475 143.475Z" fill="black"/>
<path d="M95.0015 142.786C95.1729 142.786 103.889 141.869 103.889 141.869C103.889 141.869 109.163 152.25 108.82 154.772C108.477 157.294 107.845 159.532 105.725 159.136C103.605 158.74 94.3001 159.448 94.3001 159.448L95.0015 142.786Z" fill="white"/>
<path d="M101.569 137.914C101.569 137.914 109.568 142.212 109.74 143.525C109.911 144.837 105.669 142.951 104.752 142.723C104.149 142.578 103.535 142.482 102.916 142.437L96.8031 142.602L101.569 137.914Z" fill="#CF6F80"/>
<path opacity="0.1" d="M113.814 103.237C114.279 103.237 114.656 102.86 114.656 102.396C114.656 101.931 114.279 101.554 113.814 101.554C113.349 101.554 112.972 101.931 112.972 102.396C112.972 102.86 113.349 103.237 113.814 103.237Z" fill="black"/>
<path d="M113.814 102.894C114.279 102.894 114.656 102.518 114.656 102.053C114.656 101.588 114.279 101.211 113.814 101.211C113.349 101.211 112.972 101.588 112.972 102.053C112.972 102.518 113.349 102.894 113.814 102.894Z" fill="#3F3D56"/>
<path opacity="0.1" d="M115.363 139.672C115.828 139.672 116.205 139.295 116.205 138.83C116.205 138.365 115.828 137.988 115.363 137.988C114.898 137.988 114.522 138.365 114.522 138.83C114.522 139.295 114.898 139.672 115.363 139.672Z" fill="black"/>
<path d="M115.363 139.326C115.828 139.326 116.205 138.949 116.205 138.484C116.205 138.019 115.828 137.642 115.363 137.642C114.898 137.642 114.522 138.019 114.522 138.484C114.522 138.949 114.898 139.326 115.363 139.326Z" fill="#3F3D56"/>
<path opacity="0.1" d="M114.653 121.454C115.117 121.454 115.494 121.078 115.494 120.613C115.494 120.148 115.117 119.771 114.653 119.771C114.188 119.771 113.811 120.148 113.811 120.613C113.811 121.078 114.188 121.454 114.653 121.454Z" fill="black"/>
<path d="M114.653 121.112C115.117 121.112 115.494 120.735 115.494 120.27C115.494 119.805 115.117 119.428 114.653 119.428C114.188 119.428 113.811 119.805 113.811 120.27C113.811 120.735 114.188 121.112 114.653 121.112Z" fill="#3F3D56"/>
<path d="M134.054 142.262C134.054 142.262 134.628 143.123 134.054 143.525C133.481 143.927 134.111 144.899 134.111 144.899C134.111 144.899 132.68 145.738 133.309 146.492C133.939 147.247 133.54 150.654 133.54 150.654L131.819 153.503C131.819 153.503 131.922 155.339 131.928 157.82C131.928 161.692 131.701 167.135 130.442 169.616L130.616 189.975C130.616 189.975 124.59 192.176 119.547 191.505L118.799 158.837C118.799 158.837 119.89 140.311 120.292 136.757C120.527 134.912 120.623 133.052 120.579 131.193C120.579 131.193 120.407 125.632 119.83 123.051C119.83 123.051 119.207 111.869 119.145 108.774C119.117 107.293 119.195 102.972 119.282 98.8638C119.378 94.3718 119.488 90.1354 119.488 90.1354L118.35 81.1328C118.35 81.1328 119.488 81.0175 119.83 81.4757C119.984 81.6192 120.151 81.7476 120.329 81.8591C122.293 83.1871 129.232 87.2707 129.232 87.2707C129.232 87.2707 133.073 88.7981 133.992 90.9865C134.912 93.1748 135.551 94.7272 135.997 95.3506C136.442 95.9741 136.685 98.9043 136.685 98.9043C136.685 98.9043 138.007 104.297 139.039 105.21C140.071 106.124 140.825 111.934 140.825 111.934L131.707 119.104C131.707 119.104 130.906 131.031 130.735 131.492C130.563 131.953 134.054 142.262 134.054 142.262Z" fill="white"/>
<path d="M134.4 142.262C134.4 142.262 134.971 143.122 134.4 143.525C133.83 143.927 134.453 144.899 134.453 144.899C134.453 144.899 133.032 145.747 133.655 146.502C134.279 147.256 133.886 150.663 133.886 150.663L132.165 153.512C132.165 153.512 132.268 155.348 132.278 157.83C132.278 161.701 132.05 167.144 130.791 169.625L130.962 189.984C130.962 189.984 124.927 192.185 119.89 191.515L119.145 158.846C119.145 158.846 120.236 140.32 120.638 136.766C120.873 134.921 120.968 133.061 120.921 131.202C120.921 131.202 120.75 125.641 120.176 123.06C120.176 123.06 119.553 111.878 119.487 108.783C119.459 107.302 119.54 102.982 119.625 98.873C119.721 94.3811 119.83 90.1447 119.83 90.1447L118.328 81.0205C118.328 81.0205 119.83 81.0205 120.176 81.485C120.329 81.6301 120.496 81.7587 120.675 81.8684C122.639 83.1964 129.581 87.28 129.581 87.28C129.581 87.28 133.419 88.8074 134.338 90.9957C135.258 93.184 135.897 94.7364 136.346 95.3599C136.795 95.9833 137.031 98.9135 137.031 98.9135C137.031 98.9135 138.353 104.306 139.385 105.22C140.417 106.133 141.162 111.931 141.162 111.931L132.044 119.101C132.044 119.101 131.243 131.028 131.068 131.489C130.894 131.95 134.4 142.262 134.4 142.262Z" fill="white"/>
<path opacity="0.1" d="M123.481 92.7913L124.304 95.1916L119.971 99.5558C120.067 95.0669 120.176 90.8274 120.176 90.8274L118.674 81.7032C118.674 81.7032 120.176 81.7032 120.522 82.1677C120.674 82.3125 120.841 82.44 121.021 82.548L124.706 93.1779L123.481 92.7913Z" fill="black"/>
<path d="M123.135 92.1024L123.961 94.5026L119.628 98.8668C119.724 94.3748 119.834 90.1385 119.834 90.1385L118.328 81.0143C118.328 81.0143 119.834 81.0143 120.176 81.4788C120.329 81.6231 120.496 81.7515 120.675 81.8622L124.363 92.4889L123.135 92.1024Z" fill="white"/>
<path opacity="0.1" d="M123.135 68.352C123.137 69.4753 122.96 70.5919 122.611 71.6594C122.552 71.6686 122.492 71.6659 122.434 71.6515C122.376 71.637 122.322 71.6111 122.274 71.5753C122.193 68.7697 120.812 66.1357 119.113 63.8944C118.636 63.2176 118.058 62.6184 117.399 62.1175C116.732 61.6169 115.903 61.3825 115.073 61.4598C114.138 61.5876 113.312 62.2235 112.368 62.3046C111.121 62.4074 110.005 61.5439 108.767 61.5003C108.264 61.5051 107.768 61.6171 107.311 61.8289C106.855 62.0407 106.449 62.3474 106.121 62.7285C105.471 63.4976 104.987 64.3936 104.702 65.3595C104.212 66.8241 103.945 68.3541 103.911 69.8982C103.895 70.771 103.811 71.8652 103 72.1831C103.061 71.5412 102.988 70.8936 102.786 70.2814C102.584 69.6691 102.257 69.1056 101.825 68.6263L101.806 68.6076C101.806 68.5204 101.806 68.4393 101.806 68.352C101.782 66.936 102.04 65.5294 102.565 64.2142C103.09 62.899 103.872 61.7015 104.865 60.6915C105.858 59.6816 107.042 58.8795 108.348 58.332C109.654 57.7844 111.056 57.5024 112.472 57.5024C113.888 57.5024 115.29 57.7844 116.596 58.332C117.902 58.8795 119.086 59.6816 120.079 60.6915C121.072 61.7015 121.854 62.899 122.379 64.2142C122.904 65.5294 123.162 66.936 123.138 68.352H123.135Z" fill="black"/>
<path d="M116.888 51.4161C115.268 50.6541 113.425 50.51 111.707 51.0108C110.843 51.2664 110.03 51.681 109.154 51.8899C107.283 52.3419 105.101 51.8525 103.496 52.9466C102.604 53.5701 102.068 54.5552 101.569 55.5121L100.323 57.8875C99.643 59.1874 98.9572 60.5091 98.6735 61.9399C98.3899 63.3707 98.5613 64.973 99.4684 66.1233C100.129 66.9618 101.105 67.4886 101.822 68.2773C102.252 68.757 102.577 69.3203 102.779 69.9318C102.981 70.5433 103.054 71.1899 102.994 71.831C103.808 71.5192 103.886 70.422 103.904 69.5491C103.939 68.0051 104.206 66.475 104.696 65.0104C104.981 64.0443 105.464 63.1482 106.114 62.3795C106.443 61.9986 106.849 61.6922 107.305 61.4804C107.762 61.2686 108.258 61.1564 108.761 61.1513C110.008 61.1949 111.127 62.0553 112.361 61.9524C113.297 61.8745 114.126 61.2354 115.067 61.1107C115.897 61.0322 116.727 61.2668 117.393 61.7685C118.052 62.2685 118.629 62.868 119.104 63.5453C120.806 65.7866 122.187 68.4145 122.268 71.2262C122.62 71.485 123.128 71.1483 123.303 70.7493C123.478 70.3503 123.484 69.8827 123.705 69.5024C123.961 69.0629 124.45 68.8291 124.834 68.4986C125.806 67.6601 126.049 66.248 126.012 64.9668C125.974 63.6856 125.725 62.3857 125.968 61.1263C126.115 60.3532 126.445 59.63 126.626 58.8663C126.807 58.1026 126.829 57.2453 126.402 56.5876C125.778 55.6213 124.466 55.4311 123.322 55.3407C122.022 55.2285 120.859 55.3719 120.03 54.2777C119.641 53.7067 119.203 53.1706 118.721 52.6754C118.555 52.5133 116.888 51.4847 116.888 51.4161Z" fill="#512E4E"/>
<path opacity="0.1" d="M83.0062 117.153L79.7487 111.13L78.7169 120.423C78.7169 120.423 79.2904 124.55 79.1751 125.183C79.0598 125.816 81.5255 131.489 81.5255 131.489C81.5255 131.489 89.6709 145.997 92.997 146.745L104.235 138.715L101.255 134.93C101.255 134.93 100.223 134.528 99.9641 134.93C99.9641 134.93 94.4309 125.41 93.8574 124.721C93.2838 124.032 93.396 122.658 93.396 122.658C93.396 122.658 92.5356 121.741 92.8224 120.881C93.1092 120.021 91.1609 117.037 91.1609 117.037L92.9378 115.376L83.0062 117.153Z" fill="black"/>
<path d="M79.9202 110.444L79.0598 111.13L78.028 120.423C78.028 120.423 78.6016 124.55 78.4862 125.183C78.3709 125.816 80.8398 131.489 80.8398 131.489C80.8398 131.489 88.982 145.997 92.3081 146.745L103.549 138.715L100.566 134.93C100.566 134.93 99.5339 134.528 99.2752 134.93C99.2752 134.93 93.7421 125.41 93.1685 124.721C92.5949 124.032 92.7103 122.658 92.7103 122.658C92.7103 122.658 91.8499 121.741 92.1367 120.881C92.4235 120.021 90.4721 117.037 90.4721 117.037L92.2489 115.376L79.9202 110.444Z" fill="white"/>
<path opacity="0.1" d="M133.309 146.848C133.933 147.605 133.54 151.006 133.54 151.006L131.819 153.855C131.819 153.855 131.922 155.694 131.928 158.173L129.036 159.077C128.774 159.158 128.497 159.176 128.227 159.129C127.957 159.082 127.703 158.971 127.485 158.805C127.267 158.639 127.091 158.424 126.973 158.177C126.855 157.93 126.798 157.658 126.807 157.384L127.306 141.296L134.054 143.877C133.481 144.276 134.11 145.255 134.11 145.255C134.11 145.255 132.68 146.09 133.309 146.848Z" fill="black"/>
<path d="M133.655 146.502C134.279 147.259 133.886 150.663 133.886 150.663L132.165 153.512C132.165 153.512 132.268 155.348 132.278 157.83L129.332 158.749C129.076 158.829 128.804 158.846 128.54 158.8C128.276 158.753 128.027 158.644 127.814 158.482C127.6 158.32 127.429 158.109 127.313 157.867C127.198 157.625 127.142 157.359 127.15 157.091L127.652 140.953L134.404 143.534C133.827 143.933 134.457 144.909 134.457 144.909C134.457 144.909 133.032 145.747 133.655 146.502Z" fill="white"/>
<path d="M135.89 138.833C135.89 138.833 135.432 141.76 134.285 141.932C133.138 142.103 132.624 146.667 131.48 146.505C130.336 146.343 131.093 142.262 131.134 141.47C131.174 140.679 129.887 137.399 130.85 136.654C131.813 135.909 134.862 136.654 134.862 136.654L135.89 138.833Z" fill="#CF6F80"/>
<path opacity="0.1" d="M138.331 116.292L140.495 111.928C140.495 111.928 141.355 115.254 141.355 117.031C141.355 118.808 142.558 118.983 142.558 118.983C142.558 118.983 143.877 120.541 143.182 121.676C142.487 122.811 142.206 125.635 142.206 125.635C142.206 125.635 142.434 131.025 141.402 131.77C140.37 132.515 140.155 134.295 140.155 134.295C140.155 134.295 138.26 137.677 138.319 138.481C138.378 139.285 135.682 144.731 135.682 144.731C135.682 144.731 137 137.964 129.316 135.04C129.316 135.04 129.257 132.742 129.831 132.112C130.404 131.483 131.299 131.196 130.738 128.013C130.177 124.831 130.576 121.027 130.576 120.264C130.576 119.5 132.296 114.737 132.296 114.737L138.331 116.292Z" fill="black"/>
<path d="M139.266 111.305L141.155 111.928C141.155 111.928 142.019 115.254 142.019 117.031C142.019 118.808 143.222 118.982 143.222 118.982C143.222 118.982 144.541 120.541 143.846 121.676C143.15 122.81 142.873 125.635 142.873 125.635C142.873 125.635 143.101 131.024 142.069 131.769C141.037 132.514 140.806 134.294 140.806 134.294C140.806 134.294 138.914 137.677 138.973 138.481C139.033 139.285 136.333 144.731 136.333 144.731C136.333 144.731 137.655 137.963 129.968 135.039C129.968 135.039 129.912 132.742 130.485 132.112C131.059 131.483 131.953 131.196 131.392 128.013C130.831 124.83 131.23 121.027 131.23 120.264C131.23 119.5 132.951 114.737 132.951 114.737L139.266 111.305Z" fill="white"/>
<path opacity="0.1" d="M97.542 224.42C97.542 224.42 100.553 222.528 102.53 223.903C104.506 225.278 97.542 224.42 97.542 224.42Z" fill="black"/>
<path opacity="0.1" d="M120.94 218.569C120.94 218.569 123.605 218.227 125.844 220.636C128.082 223.046 120.94 218.569 120.94 218.569Z" fill="black"/>
<g opacity="0.1">
<path d="M124.84 67.8157C124.456 68.1462 123.964 68.3831 123.708 68.8226C123.49 69.1998 123.484 69.6643 123.309 70.0695C123.135 70.4748 122.627 70.8052 122.274 70.5496C122.193 67.744 120.809 65.11 119.11 62.8655C118.635 62.1882 118.058 61.5888 117.399 61.0887C116.732 60.5871 115.901 60.3525 115.07 60.431C114.135 60.5588 113.312 61.1947 112.368 61.2726C111.121 61.3786 110.002 60.5151 108.764 60.4715C108.261 60.4765 107.765 60.5889 107.309 60.8013C106.853 61.0137 106.448 61.321 106.121 61.7028C105.47 62.4703 104.987 63.3654 104.702 64.3307C104.212 65.7953 103.946 67.3253 103.911 68.8694C103.892 69.7391 103.811 70.8239 103.007 71.1481C103.025 71.3784 103.025 71.6098 103.007 71.8401C103.817 71.5284 103.898 70.4311 103.917 69.5583C103.952 68.0142 104.218 66.4842 104.709 65.0196C104.993 64.0534 105.476 63.1573 106.127 62.3886C106.455 62.0079 106.86 61.7014 107.316 61.4896C107.772 61.2779 108.268 61.1656 108.77 61.1604C110.017 61.204 111.139 62.0644 112.374 61.9615C113.309 61.8836 114.138 61.2446 115.077 61.1199C115.908 61.0415 116.738 61.276 117.405 61.7776C118.064 62.2777 118.642 62.8771 119.117 63.5545C120.815 65.7958 122.2 68.4236 122.281 71.2354C122.633 71.4941 123.141 71.1574 123.315 70.7584C123.49 70.3594 123.496 69.8918 123.714 69.5115C123.97 69.072 124.463 68.8382 124.846 68.5078C125.819 67.6692 126.062 66.2571 126.024 64.9759C126.024 64.9354 126.024 64.8949 126.024 64.8575C125.965 65.9672 125.669 67.0988 124.84 67.8157Z" fill="black"/>
<path d="M101.828 67.5944C101.111 66.8058 100.132 66.279 99.4747 65.4435C98.9209 64.704 98.6046 63.8137 98.5676 62.8905C98.4695 64.0442 98.7917 65.1944 99.4747 66.1293C100.132 66.9679 101.111 67.4947 101.828 68.2833C102.517 69.0548 102.93 70.0326 103.003 71.0639C103.051 70.4363 102.972 69.8055 102.77 69.2093C102.568 68.6131 102.248 68.0639 101.828 67.5944Z" fill="black"/>
<path d="M126.632 58.1835C126.448 58.9472 126.121 59.6735 125.971 60.4435C125.883 60.958 125.85 61.4806 125.875 62.0021C125.885 61.7051 125.918 61.4092 125.971 61.1168C126.121 60.3438 126.448 59.6206 126.632 58.8568C126.74 58.4356 126.774 57.9992 126.735 57.5663C126.716 57.7742 126.681 57.9805 126.632 58.1835Z" fill="black"/>
</g>
<path opacity="0.1" d="M41.3752 237.095C58.1506 237.095 71.7498 234.911 71.7498 232.217C71.7498 229.522 58.1506 227.338 41.3752 227.338C24.5998 227.338 11.0007 229.522 11.0007 232.217C11.0007 234.911 24.5998 237.095 41.3752 237.095Z" fill="#0D8587"/>
<path d="M42.3541 138.761H40.3996V182.768H42.3541V138.761Z" fill="#535461"/>
<path d="M54.636 182.634L54.5144 184.616L54.3399 187.422L54.2682 188.588L54.0967 191.393L54.0219 192.559L53.8474 195.365L51.8773 227.182C51.7916 228.551 51.1876 229.836 50.188 230.776C49.1884 231.715 47.8685 232.238 46.4969 232.239H36.2536C34.8822 232.238 33.5627 231.715 32.5636 230.775C31.5646 229.836 30.9612 228.551 30.8763 227.182L28.9156 195.343L28.741 192.537L28.6693 191.371L28.4947 188.566L28.423 187.4L28.2485 184.594L28.1238 182.612C28.1021 182.23 28.1586 181.848 28.2899 181.489C28.4212 181.13 28.6244 180.802 28.8871 180.524C29.1498 180.247 29.4665 180.026 29.8176 179.875C30.1688 179.724 30.5471 179.647 30.9293 179.647H51.8804C52.2611 179.651 52.6372 179.732 52.9853 179.886C53.3334 180.04 53.6462 180.264 53.9045 180.544C54.1627 180.824 54.3608 181.154 54.4866 181.513C54.6124 181.873 54.6633 182.254 54.636 182.634Z" fill="#3F3D56"/>
<path d="M54.5146 184.616L54.34 187.413H28.4107L28.2361 184.616H54.5146Z" fill="#9D9CB5"/>
<path d="M54.2683 188.578L54.0968 191.378H28.6569L28.4824 188.578H54.2683Z" fill="#9D9CB5"/>
<path d="M54.022 192.547L53.8506 195.343H28.9032L28.7286 192.547H54.022Z" fill="#9D9CB5"/>
<path d="M25.2528 155.255C36.6339 163.491 41.3846 176.371 41.3846 176.371C41.3846 176.371 27.6687 175.9 16.2844 167.665C4.90022 159.429 0.158875 146.552 0.158875 146.552C0.158875 146.552 13.8686 147.019 25.2528 155.255Z" fill="#0D8587"/>
<path d="M0.149597 146.552C0.149597 146.552 14.3892 154.454 18.956 160.997C23.5228 167.54 41.3846 176.371 41.3846 176.371" stroke="#535461" stroke-width="0.623451" stroke-miterlimit="10"/>
<path d="M32.6002 138.665C38.7942 143.144 41.3846 150.155 41.3846 150.155C41.3846 150.155 33.9188 149.899 27.7217 145.42C21.5246 140.94 18.9404 133.927 18.9404 133.927C18.9404 133.927 26.4031 134.182 32.6002 138.665Z" fill="#0D8587"/>
<path d="M18.9404 133.927C18.9404 133.927 26.6899 138.228 29.1743 141.788C31.6588 145.348 41.3846 150.155 41.3846 150.155" stroke="#535461" stroke-width="0.623451" stroke-miterlimit="10"/>
<path d="M50.378 149.8C43.2613 157.621 41.7557 167.842 41.7557 167.842C41.7557 167.842 51.7901 165.38 58.9006 157.555C66.011 149.731 67.5229 139.513 67.5229 139.513C67.5229 139.513 57.4947 141.978 50.378 149.8Z" fill="#0D8587"/>
<path d="M67.5291 139.516C67.5291 139.516 58.2584 147.533 55.9018 153.057C53.5451 158.581 41.7557 167.842 41.7557 167.842" stroke="#535461" stroke-width="0.623451" stroke-miterlimit="10"/>
<path d="M311.623 147.047C311.623 147.047 306.476 121.442 308.446 118.256C308.446 118.256 308.518 115.295 308.399 111.52C308.399 111.376 308.399 111.233 308.399 111.086C308.746 111.318 309.107 111.526 309.481 111.71C311.296 112.642 313.38 112.912 315.373 112.471L313.814 110.734C313.44 110.32 313.05 109.871 312.969 109.322C312.888 108.773 313.113 108.284 313.306 107.795C314.787 104.054 314.865 99.35 312.012 96.4946C309.603 94.0943 309.017 90.9958 306.401 88.8043C304.49 87.1989 303.44 84.8454 302.449 82.5698C301.61 80.6465 300.765 78.7075 300.285 76.6689C299.911 75.0759 299.761 73.4269 299.247 71.8714C298.733 70.3159 297.77 68.804 296.264 68.1089C295.728 67.8626 295.132 67.7223 294.643 67.395C294.001 66.9617 293.614 66.2572 293.15 65.64C290.79 62.5228 282.888 64.3588 279.147 65.6244C278.13 65.9431 277.188 66.4649 276.379 67.1581L276.413 67.102C276.441 67.0552 276.476 67.0085 276.507 66.9617C276.097 67.2928 275.744 67.6875 275.459 68.1307C274.914 68.9942 274.686 70.0011 274.231 70.9362C273.683 72.0429 270.631 75.1321 271.943 76.3758C272.035 76.4594 272.14 76.5268 272.255 76.5753C272.747 76.7804 273.29 76.8346 273.813 76.7312L273.757 76.8652C273.309 77.9626 273.079 79.1369 273.081 80.3223C273.081 85.4439 277.305 89.5961 282.52 89.5961C283.5 89.5971 284.475 89.4467 285.41 89.1503C285.431 89.2688 285.45 89.3873 285.472 89.5057C285.472 89.5525 285.488 89.5992 285.494 89.646L285.329 89.8767C285.32 89.8624 285.311 89.8489 285.301 89.8361L280.406 96.6754C279.658 97.2022 275.35 100.319 275.107 102.657C274.851 105.217 274.596 108.212 274.596 108.212L274.562 108.855C274.348 109.033 274.098 109.163 273.828 109.236C273.559 109.309 273.278 109.322 273.003 109.275C271.475 109.026 271.475 114.886 271.475 114.886C271.475 114.886 270.459 115.822 269.761 115.011C269.063 114.201 267.217 116.947 267.217 116.947L255.652 117.446L255.387 117.461L254.764 115.532C254.697 115.328 254.552 115.159 254.361 115.062C254.17 114.964 253.949 114.946 253.745 115.011C253.696 115.027 253.649 115.047 253.604 115.07L253.561 115.095L253.48 115.151L253.439 115.189C253.417 115.209 253.396 115.231 253.377 115.254L253.339 115.298L253.321 115.317C253.249 115.416 253.201 115.531 253.181 115.652C253.162 115.774 253.171 115.898 253.208 116.015L253.745 117.67C251.513 118.119 249.231 119.385 251.092 122.87L241.659 121.127L244.711 123.69L260.465 126.941C260.256 127.315 260.394 127.857 261.045 128.621C263.851 131.916 268.963 132.811 271.02 133.041C271.564 134.257 272.242 135.407 273.043 136.47L272.866 139.753C272.866 139.753 267.657 164.772 266.703 166.041C267.185 165.495 267.625 164.915 268.022 164.304C266.51 169.445 264.396 176.48 263.841 177.534C262.95 179.217 262.124 186.028 263.14 186.465C263.452 186.599 264.343 186.533 265.615 186.437V187.001L265.559 208.382C265.559 208.382 265.815 221.497 265.113 222.747C264.412 223.997 264.225 226.618 264.225 226.618C264.225 226.618 261.419 231.79 259.197 233.869C259.181 233.885 259.165 233.9 259.147 233.913L259.078 233.426C259.078 233.426 256.407 236.799 250.496 236.609C250.496 236.609 246.94 238.922 252.214 239.047C257.488 239.171 264.225 238.86 264.225 238.86C264.225 238.86 268.929 231.69 272.869 232.625V238.058H274.075V232.538C274.635 232.17 275.114 231.691 275.483 231.133C275.852 230.574 276.104 229.946 276.223 229.287C276.326 228.607 276.251 227.913 276.004 227.271C275.757 226.63 275.347 226.064 274.814 225.63C274.575 225.414 274.383 225.15 274.25 224.856C274.118 224.562 274.048 224.244 274.044 223.922L274 223.959C274 223.85 273.972 223.738 273.96 223.622C273.614 220.817 273.181 215.028 274.711 210.745C276.809 204.872 277.445 196.693 275.918 191.823C275.425 190.267 275.02 188.684 274.705 187.082C274.668 186.879 274.633 186.686 274.602 186.505C275.646 186.647 276.68 186.855 277.698 187.129C281.236 188.104 288.976 188.285 295.584 188.232C295.6 188.413 295.619 188.603 295.64 188.793C295.758 190.115 296.005 191.422 296.376 192.696C297.205 195.19 297.586 206.185 297.586 206.185C297.586 206.185 298.655 215.225 298.072 218.903C297.76 220.948 297.448 223.002 297.271 225.066V225.106C297.271 225.106 295.519 230.094 294.238 232.803C294.207 232.871 294.172 232.94 294.141 233.005C293.799 233.037 293.463 233.111 293.14 233.227C293.14 233.227 291.423 236.656 289.711 237.223C288 237.79 288.567 239.658 292.442 238.972C296.317 238.286 302.168 237.725 302.168 237.725L302.42 234.227L303.611 232.737L303.3 236.226L304.568 235.976L304.4 231.734L306.348 229.296C306.348 229.296 308.702 227.201 305.204 223.08V223.17C305.167 223.111 305.132 223.049 305.092 222.99V222.971C304.512 222.073 304.051 220.399 304.896 217.428C306.423 212.061 307.311 207.188 307.311 207.188C307.311 207.188 310.722 194.136 306.623 187.961H306.803C306.383 187.092 306.086 186.169 305.921 185.218C305.9 185.106 305.882 184.99 305.865 184.872C308.898 184.697 311.875 184.149 314.303 182.964C314.294 182.952 312.832 151.979 311.623 147.047ZM273.115 125.445V125.507L272.492 125.538L273.115 125.445ZM270.977 125.741C270.874 125.763 270.778 125.809 270.696 125.875C270.428 126.254 270.26 126.695 270.207 127.156L269.234 126.938C269.234 126.938 268.552 126.791 267.57 126.626L267.105 126.158C268.383 126.052 269.711 125.897 270.977 125.741Z" fill="url(#paint1_linear_4_604)"/>
<path d="M303.156 231.777L302.785 236.194L304.029 235.945L303.842 231.154L303.156 231.777Z" fill="#1D2366"/>
<path d="M274.78 210.804C273.28 215.075 273.704 220.839 274.041 223.638C274.166 224.673 274.281 225.303 274.281 225.303C274.281 225.303 272.04 230.409 271.853 230.602C271.666 230.795 265.257 234.708 265.257 234.708L260.777 237.323C260.777 237.323 256.232 235.331 258.411 234.645C258.856 234.466 259.257 234.193 259.586 233.844C261.768 231.771 264.508 226.618 264.508 226.618C264.508 226.618 264.695 224.003 265.381 222.759C266.067 221.515 265.818 208.445 265.818 208.445L265.871 187.138V184.361L274.396 184.423C274.45 185.366 274.573 186.304 274.764 187.229C275.07 188.825 275.467 190.403 275.952 191.954C277.454 196.814 276.831 204.953 274.78 210.804Z" fill="#FFB0B1"/>
<path opacity="0.1" d="M274.281 225.303C274.281 225.303 272.04 230.409 271.853 230.602C271.666 230.795 265.257 234.707 265.257 234.707L260.777 237.323C260.777 237.323 256.232 235.331 258.411 234.645C258.856 234.466 259.257 234.193 259.586 233.844L259.78 235.206L261.273 235.144L274.053 223.644C274.166 224.673 274.281 225.303 274.281 225.303Z" fill="black"/>
<path d="M274.125 223.934L261.273 235.512L259.78 235.574L259.468 233.392C259.468 233.392 256.856 236.752 251.051 236.565C251.051 236.565 247.566 238.869 252.731 238.994C257.897 239.118 264.493 238.807 264.493 238.807C264.493 238.807 269.1 231.637 272.956 232.572V237.987H274.141V232.522C274.691 232.151 275.162 231.673 275.523 231.116C275.884 230.559 276.128 229.934 276.242 229.28C276.344 228.606 276.272 227.918 276.031 227.28C275.79 226.642 275.389 226.077 274.867 225.639C274.634 225.421 274.448 225.157 274.32 224.863C274.192 224.57 274.126 224.254 274.125 223.934Z" fill="#1D2366"/>
<path d="M304.341 217.463C303.511 220.424 303.963 222.092 304.531 222.987V223.005C305.258 224.11 305.765 225.345 306.021 226.643L306.071 226.924L300.223 235.449L297.049 236.696C297.049 236.696 291.946 234.954 292.879 234.455C293.112 234.333 293.477 233.685 293.895 232.79C295.142 230.094 296.862 225.119 296.862 225.119V225.078C297.043 223.024 297.33 220.976 297.648 218.937C298.218 215.268 297.171 206.263 297.171 206.263C297.171 206.263 296.797 195.312 295.986 192.821C295.62 191.555 295.377 190.256 295.26 188.943C295.092 187.384 295.054 186.1 295.054 186.1C295.054 186.1 298.415 181.424 304.574 186.474C305.067 186.877 305.5 187.347 305.862 187.871C310.117 193.924 306.691 207.26 306.691 207.26C306.691 207.26 305.834 212.111 304.341 217.463Z" fill="#FFB0B1"/>
<path opacity="0.1" d="M306.08 226.924L300.232 235.449L297.059 236.696C297.059 236.696 291.956 234.954 292.888 234.455C293.122 234.333 293.487 233.685 293.904 232.79C296.065 232.772 297.184 234.829 297.184 234.829L299.921 234.393C299.921 234.393 303.53 227.298 304.341 226.864C305.151 226.431 304.466 223.626 304.466 223.626V222.912C304.487 222.937 304.506 222.965 304.531 222.99V223.008C305.259 224.113 305.765 225.349 306.021 226.646L306.08 226.924Z" fill="black"/>
<path d="M297.371 235.013C297.371 235.013 295.812 232.151 292.826 233.208C292.826 233.208 291.145 236.637 289.465 237.192C287.785 237.747 288.346 239.617 292.143 238.934C295.94 238.252 301.663 237.688 301.663 237.688L301.912 234.199L305.772 229.283C305.772 229.283 308.072 227.198 304.649 223.093V223.806C304.649 223.806 305.335 226.612 304.525 227.045C303.714 227.479 300.117 234.577 300.117 234.577L297.371 235.013Z" fill="#1D2366"/>
<path opacity="0.1" d="M274.406 184.417C274.459 185.36 274.582 186.297 274.773 187.222C271.263 186.708 268.006 186.964 265.871 187.132V184.354L274.406 184.417Z" fill="black"/>
<path opacity="0.1" d="M306.208 188.647C306.208 188.647 301.22 188.89 295.273 188.94C295.104 187.381 295.067 186.097 295.067 186.097C295.067 186.097 298.427 181.421 304.587 186.471C305.08 186.874 305.513 187.344 305.874 187.868C305.971 188.133 306.082 188.394 306.208 188.647Z" fill="black"/>
<path d="M306.208 188.086C306.208 188.086 284.362 189.143 277.704 187.275C271.045 185.408 264.446 187.026 263.452 186.593C262.457 186.159 263.265 179.373 264.138 177.693C265.01 176.013 269.798 159.021 269.798 159.021L274.406 134.999L279.259 133.662L279.602 133.565L288.059 131.233L294.256 129.522C294.256 129.522 306.579 177.631 305.522 181.178C305.138 182.536 305.077 183.966 305.341 185.352C305.503 186.299 305.795 187.219 306.208 188.086Z" fill="#1D2366"/>
<path d="M258.346 118.571C258.346 118.571 253.982 123.247 257.286 125.853C260.59 128.459 262.763 126.102 262.763 126.102L258.346 118.571Z" fill="#C7DAF5"/>
<path opacity="0.1" d="M258.346 118.571C258.346 118.571 253.982 123.247 257.286 125.853C260.59 128.459 262.763 126.102 262.763 126.102L258.346 118.571Z" fill="black"/>
<path d="M293.605 87.8287C293.605 87.8287 293.094 88.315 292.324 89.032C291.227 90.0575 289.602 91.5569 288.162 92.8132C286.167 94.5495 284.521 95.8245 285.11 94.7365C285.7 93.6486 285.587 91.7533 285.294 89.9796C285.273 89.8611 285.254 89.7427 285.232 89.6274C284.989 88.3247 284.668 87.038 284.269 85.7744C284.269 85.7744 287.492 81.6098 289.275 79.967C289.939 79.3435 290.404 79.0879 290.432 79.5212C290.463 80.1041 290.899 81.3916 291.442 82.7569C291.457 82.8006 291.473 82.8411 291.491 82.8847C291.853 83.8199 292.261 84.78 292.62 85.6092C293.169 86.8811 293.605 87.8287 293.605 87.8287Z" fill="#FFB0B1"/>
<path opacity="0.1" d="M291.491 82.8847C291.189 84.5139 290.454 86.0319 289.364 87.2799C288.273 88.528 286.868 89.4604 285.294 89.9796C285.047 88.5566 284.704 87.1518 284.269 85.7744C284.269 85.7744 290.338 77.9345 290.432 79.5212C290.453 80.1228 290.927 81.457 291.491 82.8847Z" fill="black"/>
<path opacity="0.1" d="M284.69 92.0744L285.475 90.9678C285.475 90.9678 285.996 94.1411 287.91 92.7415C289.824 91.3418 289.917 103.275 289.917 103.275L287.863 133.989L273.019 133.101L273.439 118.259L275.12 110.778L279.275 99.9018L281.747 96.3076L284.69 92.0744Z" fill="black"/>
<path d="M289.917 103.465L288.047 131.236L287.85 134.179L279.574 133.684L279.262 133.665L273.028 133.291L273.449 118.446L275.129 110.965L279.284 100.089L281.756 96.4947L284.699 92.2458L285.484 91.1423C285.484 91.1423 286.005 94.3157 287.919 92.9161L287.959 92.888C289.83 91.7034 289.917 103.465 289.917 103.465Z" fill="#1D2366"/>
<path d="M275.338 108.365C275.338 108.365 274.593 109.924 273.096 109.671C271.6 109.419 271.603 115.282 271.603 115.282C271.603 115.282 270.609 116.217 269.923 115.407C269.237 114.597 267.429 117.337 267.429 117.337L256.101 117.835C256.101 117.835 261.142 120.139 260.154 127.109C260.154 127.109 277.267 126.049 277.828 124.431C278.39 122.814 275.338 108.365 275.338 108.365Z" fill="white"/>
<path opacity="0.03" d="M275.338 108.365C275.338 108.365 274.593 109.924 273.096 109.671C271.6 109.419 271.603 115.282 271.603 115.282C271.603 115.282 270.609 116.217 269.923 115.407C269.237 114.597 267.429 117.337 267.429 117.337L256.101 117.835C256.101 117.835 261.142 120.139 260.154 127.109C260.154 127.109 277.267 126.049 277.828 124.431C278.39 122.814 275.338 108.365 275.338 108.365Z" fill="black"/>
<path d="M242.416 121.498L245.403 124.048L269.985 129.213L266.937 126.102L242.416 121.498Z" fill="white"/>
<path d="M284.736 93.0562C284.328 93.6797 283.159 96.8718 282.183 99.6586C281.37 101.981 280.69 104.023 280.69 104.023C280.69 104.023 279.103 114.353 278.293 116.221C277.482 118.088 277.922 125.37 277.922 125.37L274.901 143.353C274.901 143.353 273.533 152.627 271.419 158.166C269.334 163.618 267.012 166.175 266.94 166.256C267.875 164.99 272.972 140.071 272.972 140.071L274.655 108.643C274.655 108.643 274.901 105.656 275.151 103.103C275.4 100.55 280.45 97.065 280.45 97.065L285.319 90.1416C285.809 90.7962 285.481 91.9371 284.736 93.0562Z" fill="white"/>
<path d="M272.04 133.447C272.04 133.447 264.87 133.135 261.397 128.964C257.925 124.793 269.424 127.299 269.424 127.299L272.414 127.985L272.04 133.447Z" fill="#FFB0B1"/>
<path opacity="0.1" d="M305.522 181.181C305.138 182.539 305.076 183.969 305.341 185.355C297.52 185.91 289.153 183.796 289.153 183.796C287.595 185.23 283.489 187.344 283.489 187.344L281.251 159.6C279.82 155.86 279.259 136.261 279.259 136.261C279.259 136.261 279.387 135.236 279.571 133.699C279.571 133.662 279.571 133.621 279.587 133.584C280.145 129.291 281.251 121.233 281.794 120.145C282.542 118.649 279.493 114.668 279.493 114.668L280.88 102.838L281.049 101.411C283.973 100.104 286.214 95.9335 286.214 95.9335L287.935 92.9191C289.805 91.719 289.902 103.48 289.902 103.48L288.031 131.252L294.228 129.541C294.228 129.541 306.579 177.634 305.522 181.181Z" fill="black"/>
<path d="M313.549 183.098C305.023 187.331 289.527 183.41 289.527 183.41C287.969 184.844 283.863 186.957 283.863 186.957L281.622 159.214C280.194 155.473 279.633 135.875 279.633 135.875C279.633 135.875 281.435 121.252 282.183 119.759C282.401 119.322 282.295 118.674 282.037 117.976C280.765 114.652 280.297 111.075 280.671 107.536L281.27 102.452L281.435 101.027C284.362 99.7179 286.603 95.547 286.603 95.547L288.162 92.8163L291.03 87.785L292.389 85.4034L292.62 85.6123L294.381 87.2083C294.381 87.2083 295.129 87.8318 296.251 88.767C298.692 90.8244 302.91 94.4466 305.086 96.663C307 98.6144 307.604 106.205 307.779 111.919C307.894 115.681 307.826 118.63 307.826 118.63C305.896 121.807 310.943 147.309 310.943 147.309C312.118 152.237 313.549 183.098 313.549 183.098Z" fill="white"/>
<path opacity="0.03" d="M297.184 95.4846C297.184 95.4846 291.332 106.623 292.012 110.856C292.692 115.089 294.624 119.88 293.692 120.999C293.372 121.423 292.958 121.767 292.483 122.005C292.007 122.242 291.483 122.366 290.952 122.368C290.017 122.43 287.523 124.173 287.523 124.36C287.523 124.547 285.22 124.547 283.159 125.42C281.099 126.292 278.056 126.788 278.056 126.788C278.056 126.788 272.133 126.601 271.582 127.162C271.03 127.723 270.462 131.081 271.644 133.758C272.825 136.436 274.138 138.434 275.129 138.799C276.12 139.164 282.411 137.056 287.514 136.558C292.617 136.059 298.156 132.016 298.156 132.016C298.156 132.016 304.257 129.834 305.326 126.165C306.395 122.496 304.02 102.33 304.02 102.33C304.02 102.33 302.224 92.9316 297.184 95.4846Z" fill="black"/>
<path opacity="0.03" d="M296.435 94.5495C296.435 94.5495 290.584 105.691 291.27 109.921C291.956 114.151 293.882 118.945 292.947 120.067C292.628 120.492 292.215 120.836 291.74 121.074C291.265 121.311 290.741 121.435 290.21 121.436C289.275 121.498 286.781 123.241 286.781 123.428C286.781 123.615 284.477 123.615 282.417 124.485C280.356 125.354 277.314 125.853 277.314 125.853C277.314 125.853 271.391 125.666 270.843 126.227C270.294 126.788 269.72 130.149 270.905 132.823C272.089 135.498 273.399 137.499 274.39 137.864C275.381 138.229 281.672 136.121 286.775 135.626C291.878 135.13 297.417 131.081 297.417 131.081C297.417 131.081 303.515 128.899 304.571 125.233C305.628 121.567 303.265 101.395 303.265 101.395C303.265 101.395 301.476 91.9996 296.435 94.5495Z" fill="black"/>
<path d="M297 94.9235C297 94.9235 291.149 106.065 291.834 110.295C292.52 114.525 294.447 119.319 293.515 120.438C293.195 120.864 292.782 121.209 292.306 121.447C291.831 121.685 291.306 121.809 290.774 121.81C289.839 121.872 287.346 123.615 287.346 123.799C287.346 123.983 285.045 123.986 282.981 124.859C280.918 125.731 277.878 126.227 277.878 126.227C277.878 126.227 271.956 126.04 271.404 126.601C270.852 127.162 270.285 130.523 271.466 133.197C272.648 135.872 273.96 137.873 274.951 138.238C275.943 138.602 282.233 136.495 287.336 135.996C292.439 135.498 297.978 131.455 297.978 131.455C297.978 131.455 304.079 129.273 305.148 125.604C306.217 121.935 303.858 101.769 303.858 101.769C303.858 101.769 302.037 92.3861 297 94.9235Z" fill="white"/>
<path opacity="0.1" d="M296.872 124.806C296.872 124.806 292.196 123.87 293.823 125.429C295.45 126.988 295.441 128.353 297.433 128.291C299.425 128.228 296.872 124.806 296.872 124.806Z" fill="black"/>
<path opacity="0.1" d="M304.774 158.341C304.774 158.341 302.661 159.772 306.704 163.07C310.747 166.368 304.774 158.341 304.774 158.341Z" fill="black"/>
<path opacity="0.1" d="M300.74 170.102C300.74 170.289 299.992 176.96 302.791 178.628C305.591 180.296 300.74 170.102 300.74 170.102Z" fill="black"/>
<path d="M256.294 117.82C254.038 117.898 249.162 118.587 251.69 123.303C253.925 127.477 257.682 124.687 259.795 122.571C259.28 120.597 258.027 118.897 256.294 117.82Z" fill="#FFB0B1"/>
<path opacity="0.1" d="M296.251 88.9572C293.857 90.5937 291.85 91.9747 291.457 92.2614C290.385 93.0563 288.34 97.7229 287.021 100.104C285.971 102.022 282.557 102.514 281.27 102.636L281.435 101.211C284.362 99.9018 286.604 95.731 286.604 95.731L292.389 85.5874L294.381 87.3985C294.381 87.3985 295.129 88.022 296.251 88.9572Z" fill="black"/>
<path d="M296.251 88.77C293.857 90.4066 291.85 91.7875 291.457 92.0774C290.385 92.8692 288.34 97.5357 287.021 99.9173C285.971 101.834 282.557 102.327 281.27 102.449L281.435 101.024C284.362 99.7147 286.604 95.5438 286.604 95.5438L292.389 85.4003L294.381 87.2052C294.381 87.2052 295.129 87.8224 296.251 88.77Z" fill="#DCE7FF"/>
<path d="M291.644 80.8273C291.645 82.6986 291.078 84.5261 290.017 86.0674C288.764 87.8899 286.899 89.2028 284.761 89.7678C282.622 90.3329 280.352 90.1128 278.362 89.1473C276.372 88.1819 274.795 86.5351 273.915 84.5058C273.035 82.4766 272.912 80.1992 273.568 78.087C274.224 75.9748 275.616 74.1677 277.49 72.9936C279.364 71.8194 281.597 71.3561 283.784 71.6876C285.971 72.0191 287.966 73.1235 289.408 74.8004C290.85 76.4773 291.644 78.6156 291.644 80.8273Z" fill="#FFB0B1"/>
<path opacity="0.1" d="M307.779 111.922C306.513 111.143 305.482 110.036 304.796 108.717C304.275 107.689 303.929 106.501 303.041 105.772C302.24 105.117 301.17 104.958 300.173 104.665C296.894 103.696 294.144 100.703 294.041 97.2865C293.991 95.678 294.493 94.0726 294.266 92.4796C294.136 91.5781 293.778 90.7249 293.225 90.0014C292.95 89.6554 292.649 89.3313 292.324 89.032C291.887 88.6205 291.429 88.2215 291.03 87.7851C290.779 87.5148 290.559 87.2168 290.375 86.8967C290.227 86.6347 290.107 86.3578 290.017 86.0706C289.393 84.1628 289.961 81.8997 289.275 79.9701L289.238 79.8641C288.979 79.1783 288.452 78.4925 287.719 78.4395C286.987 78.3865 286.36 78.9944 285.662 79.2656C284.2 79.8329 282.623 78.8666 281.404 77.8815C280.185 76.8965 278.81 75.7712 277.261 75.9894C276.235 76.1359 275.425 76.8341 274.48 77.1957C274.267 77.2783 274.047 77.3419 273.823 77.3859C274.622 75.3925 276.091 73.7396 277.976 72.7113C279.862 71.683 282.047 71.3435 284.155 71.7511C286.264 72.1587 288.165 73.2879 289.532 74.9448C290.898 76.6016 291.645 78.6827 291.644 80.8305C291.645 81.479 291.577 82.1259 291.441 82.76C291.457 82.8037 291.473 82.8442 291.491 82.8879C291.853 83.823 292.261 84.7831 292.62 85.6123L294.381 87.2084C294.381 87.2084 295.129 87.8318 296.251 88.767C298.692 90.8244 302.91 94.4466 305.086 96.663C307 98.6206 307.598 106.208 307.779 111.922Z" fill="black"/>
<path d="M274.371 71.5005C274.817 70.5933 275.039 69.5771 275.572 68.7168C276.354 67.4699 277.719 66.6718 279.122 66.1887C282.785 64.9262 290.525 63.0932 292.838 66.1887C293.293 66.8121 293.67 67.5041 294.3 67.9343C294.78 68.2616 295.36 68.4019 295.887 68.6482C297.361 69.3402 298.303 70.849 298.804 72.3889C299.306 73.9288 299.456 75.581 299.824 77.1676C300.295 79.2032 301.121 81.1328 301.944 83.0499C302.913 85.313 303.942 87.6603 305.812 89.2595C308.365 91.4415 308.929 94.5307 311.298 96.9248C314.104 99.7677 314.014 104.459 312.567 108.184C312.377 108.674 312.162 109.185 312.237 109.706C312.312 110.226 312.698 110.7 313.063 111.115L314.596 112.845C310.968 113.721 306.863 111.825 305.173 108.499C304.652 107.47 304.306 106.286 303.415 105.553C302.617 104.899 301.545 104.743 300.55 104.45C297.271 103.477 294.521 100.482 294.418 97.0651C294.369 95.4597 294.871 93.8543 294.643 92.2645C294.516 91.3569 294.157 90.4977 293.599 89.7707C292.741 88.6516 291.448 87.9003 290.75 86.6534C289.568 84.568 290.466 81.8591 289.615 79.6209C289.353 78.9351 288.829 78.2493 288.097 78.1963C287.364 78.1433 286.738 78.7512 286.036 79.0224C284.577 79.5897 283 78.6265 281.781 77.6383C280.562 76.6502 279.188 75.528 277.635 75.7493C276.61 75.8927 275.802 76.5909 274.858 76.9557C274.159 77.2237 272.744 77.4638 272.133 76.8746C270.843 75.6869 273.832 72.6102 274.371 71.5005Z" fill="#591D4B"/>
<path opacity="0.1" d="M306.04 107.471C305.516 106.442 305.173 105.257 304.281 104.528C303.483 103.873 302.411 103.714 301.414 103.421C298.137 102.452 295.388 99.456 295.282 96.0395C295.232 94.4342 295.734 92.8256 295.509 91.2358C295.379 90.3341 295.019 89.4809 294.465 88.7576C293.605 87.6385 292.311 86.8873 291.616 85.6404C290.435 83.558 291.332 80.8492 290.478 78.6078C290.219 77.9252 289.693 77.2394 288.963 77.1833C288.234 77.1272 287.601 77.7413 286.903 78.0125C285.444 78.5798 283.863 77.6134 282.648 76.6284C281.432 75.6433 280.051 74.518 278.502 74.7362C277.476 74.8827 276.666 75.581 275.724 75.9426C275.026 76.2107 273.608 76.4538 272.997 75.8647C271.712 74.6178 274.702 71.5473 275.238 70.4438C275.684 69.5335 275.905 68.5204 276.441 67.66C276.469 67.6133 276.5 67.5665 276.532 67.5198C276.131 67.852 275.784 68.2455 275.506 68.6856C274.973 69.546 274.752 70.556 274.306 71.4693C273.767 72.5728 270.777 75.6527 272.065 76.8902C272.688 77.4825 274.091 77.2394 274.789 76.9713C275.724 76.6066 276.541 75.9083 277.567 75.7649C279.125 75.5436 280.497 76.6689 281.712 77.654C282.928 78.639 284.518 79.6054 285.971 79.038C286.669 78.7668 287.28 78.1558 288.028 78.212C288.776 78.2681 289.275 78.9507 289.546 79.6365C290.397 81.8747 289.499 84.5836 290.681 86.6691C291.379 87.8942 292.673 88.661 293.53 89.7863C294.088 90.5133 294.448 91.3726 294.574 92.2801C294.802 93.8699 294.3 95.4753 294.35 97.0807C294.453 100.51 297.202 103.493 300.481 104.465C301.47 104.758 302.548 104.914 303.346 105.569C304.241 106.302 304.593 107.486 305.104 108.515C306.794 111.841 310.899 113.736 314.528 112.86L313.805 112.044C310.659 112.09 307.477 110.301 306.04 107.471Z" fill="black"/>
<path opacity="0.1" d="M284.549 93.2433C284.141 93.8667 282.972 97.0588 281.996 99.8456C281.083 99.4903 280.254 97.224 280.254 97.224L285.123 90.2975C285.622 90.9833 285.294 92.1211 284.549 93.2433Z" fill="black"/>
<path d="M284.736 93.0563C284.328 93.6798 283.159 96.8719 282.183 99.6587C281.27 99.3064 280.441 97.0371 280.441 97.0371L285.31 90.1136C285.809 90.7963 285.481 91.9372 284.736 93.0563Z" fill="#DCE7FF"/>
<path d="M256.425 124.902L253.726 116.389C253.694 116.289 253.682 116.184 253.691 116.08C253.699 115.976 253.729 115.874 253.777 115.781C253.825 115.688 253.891 115.606 253.971 115.538C254.051 115.471 254.143 115.42 254.243 115.388C254.444 115.326 254.662 115.345 254.849 115.442C255.035 115.539 255.176 115.705 255.241 115.906L257.94 124.41L257.672 126.19L256.425 124.902Z" fill="#BE8B87"/>
<path opacity="0.1" d="M253.981 115.641C254.183 115.577 254.401 115.596 254.589 115.693C254.776 115.79 254.918 115.957 254.982 116.158L257.682 124.662L257.479 125.996L257.675 126.202L257.943 124.422L255.228 115.918C255.164 115.718 255.023 115.551 254.836 115.454C254.649 115.357 254.432 115.338 254.231 115.401C254.062 115.456 253.916 115.565 253.816 115.712C253.869 115.684 253.924 115.66 253.981 115.641Z" fill="white"/>
<path d="M256.425 124.902L257.94 124.422L257.719 125.881L257.672 126.202L257.229 125.741L256.425 124.902Z" fill="#EFC8C4"/>
<path d="M257.23 125.741C257.256 125.707 257.289 125.68 257.326 125.66C257.348 125.646 257.374 125.638 257.4 125.638C257.425 125.638 257.451 125.646 257.473 125.66C257.494 125.685 257.512 125.714 257.526 125.744C257.546 125.778 257.574 125.808 257.608 125.83C257.641 125.852 257.679 125.866 257.719 125.872L257.672 126.183L257.23 125.741Z" fill="#727A9C"/>
<path d="M253.71 119.413C253.71 119.413 259.125 119.382 257.85 121.685C256.575 123.989 254.583 124.266 254.583 124.266L253.71 119.413Z" fill="#FFB0B1"/>
<path d="M220.035 16.0289H219.801C210.499 16.0289 202.273 20.9511 197.541 28.2143C192.809 20.9511 184.582 16.0289 175.28 16.0289H175.046C168.066 16.0955 161.393 18.9143 156.479 23.8728C151.565 28.8313 148.806 35.5289 148.802 42.51C148.802 51.1791 152.599 63.4798 160.003 73.6015C174.108 92.888 197.541 109.762 197.541 109.762C197.541 109.762 220.973 92.8911 235.075 73.6015C242.482 63.4798 246.276 51.1791 246.276 42.51C246.272 35.5294 243.514 28.8323 238.6 23.8739C233.687 18.9154 227.015 16.0963 220.035 16.0289ZM216.69 75.0853C215.63 75.0813 214.597 74.757 213.725 74.1551C212.854 73.5532 212.184 72.7017 211.805 71.7125H206.244C205.878 71.7102 205.521 71.5936 205.225 71.379C204.928 71.1644 204.705 70.8625 204.589 70.5154L202.88 65.3688L197.475 84.2563C197.37 84.6199 197.149 84.9395 196.847 85.1672C196.545 85.3948 196.176 85.5182 195.798 85.5188H195.689C195.294 85.4997 194.917 85.3456 194.622 85.0824C194.327 84.8191 194.132 84.4626 194.068 84.0724L188.497 50.5681L184.426 70.3939C184.333 70.7705 184.116 71.105 183.81 71.344C183.505 71.583 183.128 71.7127 182.74 71.7125H174.906C174.671 71.7224 174.437 71.6847 174.217 71.6017C173.997 71.5187 173.796 71.3921 173.627 71.2294C173.457 71.0668 173.322 70.8715 173.23 70.6553C173.137 70.4391 173.09 70.2065 173.09 69.9715C173.09 69.7364 173.137 69.5038 173.23 69.2876C173.322 69.0715 173.457 68.8762 173.627 68.7135C173.796 68.5509 173.997 68.4242 174.217 68.3412C174.437 68.2582 174.671 68.2205 174.906 68.2305H181.368L187.135 41.5748C187.23 41.1807 187.458 40.8318 187.782 40.5876C188.105 40.3434 188.504 40.2191 188.909 40.236C189.314 40.253 189.7 40.4101 190.002 40.6804C190.304 40.9508 190.503 41.3176 190.564 41.7182L196.253 75.8958L201.097 58.9972C201.198 58.6413 201.411 58.3275 201.705 58.1028C201.999 57.8781 202.358 57.7544 202.728 57.7503H202.762C203.128 57.7504 203.485 57.8662 203.782 58.0811C204.079 58.2961 204.3 58.5992 204.414 58.9473L207.503 68.2398H211.736C212.037 67.3254 212.585 66.512 213.319 65.8892C214.053 65.2665 214.945 64.8586 215.897 64.7108C216.848 64.5629 217.821 64.6807 218.71 65.0512C219.598 65.4217 220.367 66.0305 220.932 66.8104C221.496 67.5903 221.834 68.511 221.908 69.4708C221.982 70.4306 221.79 71.3922 221.352 72.2496C220.914 73.1069 220.248 73.8266 219.427 74.3292C218.606 74.8318 217.662 75.0978 216.699 75.0978L216.69 75.0853Z" fill="#0D8587"/>
</g>
<defs>
<filter id="filter0_d_4_604" x="-4.83465" y="0" width="354.138" height="253.669" filterUnits="userSpaceOnUse" color-interpolation-filters="sRGB">
<feFlood flood-opacity="0" result="BackgroundImageFix"/>
<feColorMatrix in="SourceAlpha" type="matrix" values="0 0 0 0 0 0 0 0 0 0 0 0 0 0 0 0 0 0 127 0" result="hardAlpha"/>
<feOffset dy="4.83465"/>
<feGaussianBlur stdDeviation="2.41733"/>
<feComposite in2="hardAlpha" operator="out"/>
<feColorMatrix type="matrix" values="0 0 0 0 0 0 0 0 0 0 0 0 0 0 0 0 0 0 0.25 0"/>
<feBlend mode="normal" in2="BackgroundImageFix" result="effect1_dropShadow_4_604"/>
<feBlend mode="normal" in="SourceGraphic" in2="effect1_dropShadow_4_604" result="shape"/>
</filter>
<linearGradient id="paint0_linear_4_604" x1="111.077" y1="241.547" x2="111.077" y2="49.7296" gradientUnits="userSpaceOnUse">
<stop stop-color="#808080" stop-opacity="0.25"/>
<stop offset="0.54" stop-color="#808080" stop-opacity="0.12"/>
<stop offset="1" stop-color="#808080" stop-opacity="0.1"/>
</linearGradient>
<linearGradient id="paint1_linear_4_604" x1="278.505" y1="239.121" x2="278.505" y2="63.9318" gradientUnits="userSpaceOnUse">
<stop stop-color="#808080" stop-opacity="0.25"/>
<stop offset="0.54" stop-color="#808080" stop-opacity="0.12"/>
<stop offset="1" stop-color="#808080" stop-opacity="0.1"/>
</linearGradient>
<clipPath id="clip0_4_604">
<rect width="344.469" height="244" fill="white"/>
</clipPath>
</defs>
</svg>
